<svg width="791" height="407" viewBox="0 0 791 407" fill="none" xmlns="http://www.w3.org/2000/svg">
<path d="M763.113 113.473C763.625 113.849 764.134 114.229 764.631 114.619C765.017 114.906 765.017 114.906 765.412 115.198C768.159 117.388 770.233 120.73 770.892 123.956C770.811 124.645 770.811 124.645 770.523 125.244C768.214 126.313 765.75 126.551 763.158 126.21C762.042 125.521 761.541 124.474 760.904 123.434C758.366 119.58 754.661 117.108 749.899 115.585C745.634 114.983 741.616 115.669 737.686 117.13C736.655 117.513 735.616 117.884 734.578 118.254C718.487 123.637 718.487 123.637 706.303 133.737C704.635 135.679 702.403 135.73 699.817 136.062C695.91 136.577 692.989 137.836 690.234 140.376C689.306 140.07 688.798 139.771 688.157 139.101C687.435 137.688 687.572 136.451 687.682 134.922C687.7 134.623 687.723 134.323 687.741 134.011C688.146 128.988 689.988 124.838 693.781 121.039C694.842 120.282 695.505 120.115 696.864 120.092C697.53 120.44 697.53 120.44 698.086 120.958C700.867 123.273 704.241 123.75 707.964 123.702C712.343 123.425 715.242 121.248 718.501 118.891C730.791 110.025 748.941 104.229 763.113 113.473Z" fill="#FDFDFD"/>
<path d="M233.914 67.6127C234.93 68.2728 235.741 68.8845 236.514 69.7667C238.871 72.3263 242.639 74.6316 246.436 75.018C249.986 75.3206 253.319 74.4255 256.649 73.4307C259.422 72.6032 262.324 72.2072 265.146 73.0862C267.598 74.2356 268.957 75.8679 270.375 77.9157C271.745 79.8185 273.038 81.0838 275.532 81.7792C276.53 81.8404 277.48 81.8694 278.478 81.8597C278.754 81.8597 279.03 81.8565 279.314 81.8565C281.432 81.8275 283.465 81.5957 285.553 81.2834C288.691 80.8327 291.696 81.1578 294.322 82.7967C295.552 83.7336 296.293 84.8283 297.077 86.0646C297.361 86.496 297.648 86.9275 297.935 87.3557C298.071 87.5617 298.208 87.7646 298.348 87.9771C299.721 89.9797 301.261 91.9598 303.891 92.7261C306.17 92.9128 308.004 92.6681 310.141 91.9791C311.717 91.5155 312.715 91.5992 314.203 92.2238C315.65 93.3024 316.534 94.5355 317.518 95.9457C318.623 97.4944 319.672 98.6567 321.569 99.4874C323.156 99.5582 324.298 99.5389 325.845 99.1686C327.996 98.6728 330.187 98.7404 332.397 98.7468C334.574 98.705 334.574 98.705 336.448 97.8228C337.398 96.9181 338.135 96.0198 338.879 94.9798C341.273 92.1498 343.77 89.6899 347.718 88.5405C350.926 88.1799 353.25 88.9559 355.81 90.6236C359.607 93.5986 360.955 98.4152 361.345 102.707C361.721 111.143 361.644 120.319 355.821 127.498C355.607 127.798 355.397 128.097 355.176 128.403C353.703 129.656 351.644 130.718 349.56 130.718C349.619 130.879 349.678 131.04 349.74 131.204C351.832 140.116 346.606 149.405 342.194 157.119C342.216 157.85 342.267 158.581 342.334 159.312C342.359 159.634 342.359 159.634 342.385 159.959C342.444 160.622 342.503 161.285 342.562 161.949C342.599 162.361 342.632 162.773 342.669 163.198C342.753 164.177 342.842 165.155 342.93 166.134C343.35 166.173 343.77 166.212 344.201 166.253C345.873 166.437 347.471 166.762 349.099 167.139C349.398 167.21 349.696 167.277 350.002 167.348C353.817 168.256 357.64 169.347 361.279 170.709C362.17 171.038 362.17 171.038 363.555 170.964C363.934 171.273 364.303 171.598 364.66 171.93C365.242 172.21 365.842 172.467 366.446 172.712C366.807 172.857 367.172 173.005 367.544 173.16C368.133 173.398 368.133 173.398 368.733 173.639C384.765 180.262 399.387 188.575 413.183 198.27C423.242 205.366 423.242 205.366 434.268 211.209C434.523 211.325 434.777 211.441 435.038 211.56C441.167 214.326 447.697 216.193 454.223 218.1C455.46 218.463 456.698 218.827 457.935 219.191C458.823 219.452 459.714 219.706 460.602 219.96C464.815 221.184 468.992 222.594 472.664 224.813C473.643 225.473 473.643 225.473 474.851 225.353C476.295 225.044 477.735 224.735 479.171 224.404C504.194 218.637 533.554 219.239 558.385 225.376C558.311 225.199 558.242 225.019 558.168 224.835C556.326 220.234 554.746 215.601 553.314 210.891C553.185 210.466 553.056 210.038 552.927 209.613C552.861 209.397 552.794 209.184 552.728 208.965C552.26 207.433 551.752 205.91 551.229 204.39C550.242 201.496 549.384 198.572 548.541 195.646C548.275 194.728 548.007 193.81 547.738 192.893C547.115 190.755 546.496 188.62 545.878 186.482C544.872 182.996 543.775 179.551 542.548 176.115C541.561 173.35 540.607 170.581 539.742 167.783C539.639 167.474 539.539 167.165 539.436 166.846C539.348 166.559 539.263 166.273 539.175 165.976C539.097 165.725 539.016 165.474 538.939 165.217C538.847 164.347 539.057 163.958 539.602 163.237C540.559 162.618 540.559 162.618 541.672 162.029C542.044 161.833 542.412 161.633 542.791 161.43C543.075 161.282 543.362 161.134 543.653 160.983C543.045 159.576 542.29 158.256 541.513 156.92C541.248 156.459 540.987 155.999 540.725 155.538C540.276 154.75 539.819 153.967 539.355 153.188C537.79 150.448 537.79 150.448 538.217 148.777C539.779 145.036 542.71 141.813 546.6 139.733C546.843 139.733 547.086 139.733 547.336 139.733C547.292 139.186 547.292 139.186 547.244 138.626C547.292 130.01 553.549 121.494 559.321 114.922C560.127 113.989 560.901 113.032 561.678 112.079C562.657 110.882 563.648 109.69 564.646 108.502C564.801 108.319 564.956 108.132 565.114 107.942C567.453 105.193 570.432 102.491 574.333 101.548C580.034 100.811 585.503 101.625 590.427 104.317C590.67 104.636 590.913 104.954 591.164 105.283C589.989 104.945 588.818 104.597 587.658 104.223C583.006 102.784 578.612 102.269 573.905 103.972C573.04 104.333 573.04 104.333 572.012 104.961C573.088 105.276 574.159 105.592 575.235 105.907C575.692 106.039 575.692 106.039 576.156 106.178C576.45 106.265 576.745 106.348 577.047 106.439C577.319 106.519 577.588 106.596 577.864 106.68C579.75 107.198 581.415 107.272 583.385 107.276C583.82 107.282 583.82 107.282 584.266 107.285C585.993 107.292 587.319 107.099 588.954 106.571C590.015 106.693 590.015 106.693 590.795 106.893C590.718 107.652 590.718 107.652 590.427 108.502C587.665 110.199 583.717 110.122 580.483 109.79C578.708 109.478 577.032 109.034 575.327 108.502C574.962 108.393 574.601 108.287 574.226 108.174C572.52 107.633 571.559 107.285 570.539 105.927C567.703 108.477 565.383 111.291 563.048 114.188C562.462 114.91 561.869 115.624 561.276 116.339C555.888 122.852 550.43 130.267 549.546 138.445C549.789 138.445 550.032 138.445 550.283 138.445C550.386 138.719 550.489 138.989 550.596 139.269C551.697 141.993 552.828 144.163 555.674 145.747C557.277 146.298 558.654 146.343 560.367 146.333C560.849 146.333 560.849 146.333 561.339 146.333C564.083 146.279 566.44 145.747 568.996 144.913C570.171 144.563 570.171 144.563 571.644 144.563C571.644 145.094 571.644 145.625 571.644 146.172C571.939 146.066 572.237 145.96 572.543 145.85C574.399 145.396 576.093 145.065 577.894 145.841C586.24 151.462 590.272 163.8 593.79 172.046C600.018 186.631 607.214 200.82 614.982 214.825C615.468 215.714 615.95 216.602 616.433 217.494C618.716 221.744 621.169 225.898 623.725 230.028C623.861 230.251 624.001 230.476 624.141 230.708C624.403 231.126 624.661 231.545 624.922 231.963C625.784 233.354 625.784 233.354 625.784 234.069C626.067 234.088 626.351 234.108 626.646 234.127C627.014 234.156 627.382 234.182 627.765 234.211C628.13 234.236 628.498 234.262 628.878 234.288C629.835 234.391 629.835 234.391 630.572 234.713C630.586 234.5 630.601 234.288 630.616 234.069C630.804 231.783 631.294 229.687 632.023 227.488C632.133 227.144 632.247 226.799 632.362 226.445C634.63 219.677 637.492 213.099 640.884 206.702C641.079 206.335 641.271 205.971 641.47 205.594C644.169 200.543 647.068 195.636 650.272 190.81C651.156 189.457 652.003 188.089 652.854 186.721C655.52 182.451 658.389 178.292 661.258 174.125C667.155 165.558 672.992 156.942 678.226 148.046C678.834 147.113 679.452 146.314 680.292 145.528C681.257 145.545 681.942 145.657 682.87 145.85C683.658 145.966 684.45 146.082 685.242 146.192C685.923 146.292 686.608 146.395 687.29 146.494C687.665 145.516 688.037 144.537 688.384 143.548C689.396 140.928 690.56 139.363 693.183 137.801C693.558 137.569 693.558 137.569 693.945 137.334C695.481 136.536 696.917 136.162 698.678 135.956C702.954 135.573 702.954 135.573 706.342 133.5C706.968 132.766 707.572 132.016 708.172 131.265C710.688 128.39 714.688 126.333 718.227 124.601C718.595 124.414 718.595 124.414 718.971 124.224C723.497 121.954 728.223 120.187 733.051 118.483C733.349 118.377 733.648 118.274 733.957 118.165C734.822 117.859 735.688 117.556 736.557 117.257C736.811 117.166 737.069 117.076 737.334 116.986C741.813 115.444 746.608 114.15 751.37 115.666C755.944 117.553 760.578 121.008 762.423 125.245C762.301 125.563 762.18 125.882 762.054 126.211C761.911 125.988 761.767 125.766 761.62 125.538C759.101 121.841 755.558 118.825 750.733 117.579C749.205 117.292 747.783 117.17 746.218 117.195C751.053 122.514 751.053 122.514 757.635 125.889C757.948 125.985 758.257 126.079 758.578 126.178C759.366 126.413 760.154 126.639 760.95 126.854C760.828 127.386 760.706 127.917 760.581 128.464C756.151 128.748 752.648 126.52 749.367 124.098C748.346 123.271 747.492 122.337 746.63 121.381C746.358 121.091 746.358 121.091 746.078 120.792C745.905 120.602 745.731 120.412 745.555 120.216C745.396 120.045 745.242 119.874 745.08 119.697C744.638 118.947 744.689 118.351 744.744 117.517C741.496 117.917 738.568 118.944 735.559 120.032C735.305 120.125 735.047 120.216 734.786 120.312C719.346 125.666 719.347 125.666 707.178 135.226C707.299 135.544 707.421 135.863 707.546 136.191C707.425 136.62 707.303 137.051 707.178 137.479C706.788 141.584 706.788 141.584 708.651 145.206C711.631 148.159 716.245 149.08 720.437 150.036C720.197 151.385 719.858 152.612 719.332 153.9C719.545 154.012 719.755 154.128 719.976 154.244C721.214 155.02 722.123 155.664 722.54 156.974C722.967 167.4 716.22 178.041 711.384 187.233C698.188 212.343 687.433 238.821 679.346 265.522C673.353 285.297 667.21 301.527 645.926 312.419C633.676 318.604 620.234 323.044 606.588 326.222C605.682 326.438 604.78 326.666 603.885 326.908C594.081 329.519 583.665 330.81 573.485 331.625C573.047 331.66 573.047 331.66 572.601 331.695C560.746 332.658 548.909 332.677 537.013 332.613C525.647 331.911 525.647 331.911 515.132 334.4C506.05 339.133 496.378 339.941 485.992 340.64C477.89 341.2 471.238 343.26 463.942 346.335C460.219 347.881 456.429 349.02 452.337 349.532C452.046 349.574 451.752 349.613 451.45 349.655C449.87 349.858 448.301 350.006 446.706 350.089C442.047 350.337 438.047 351.207 433.635 352.523C424.435 355.254 414.738 356.503 405.143 357.643C401.405 358.087 397.763 358.673 394.098 359.462C391.233 360.064 388.529 360.299 385.653 359.636C382.651 359.256 380.802 360.267 378.339 361.616C375.801 362.923 372.995 362.765 370.184 362.192C367.279 361.645 364.87 362.134 362.06 362.875C358.708 363.741 356.583 363.77 353.338 362.62C352.506 362.211 352.506 362.211 351.033 360.924C349.21 361.455 347.387 361.986 345.508 362.533C347.453 362.64 349.398 362.746 351.401 362.855C352.116 370.599 352.116 370.599 350.506 372.624C349.453 373.68 348.234 374.539 346.982 375.412C346.54 375.831 346.105 376.259 345.693 376.7C344.367 378.042 342.986 379.337 341.604 380.634C340.621 381.565 339.645 382.502 338.695 383.461C337.557 384.611 336.378 385.728 335.196 386.842C333.8 388.155 332.426 389.482 331.086 390.837C330.025 391.89 328.935 392.92 327.845 393.951C326.92 394.83 326.007 395.718 325.112 396.623C323.904 397.843 322.644 399.022 321.385 400.203C320.081 401.427 318.777 402.65 317.518 403.906C317.322 404.099 317.127 404.292 316.928 404.489C316.402 405.026 316.402 405.026 315.967 405.616C315.536 406.16 315.536 406.16 314.571 406.965C312.026 407.1 309.559 406.823 307.032 406.546C303.309 406.153 299.581 405.809 295.847 405.503C295.589 405.48 295.335 405.461 295.074 405.439C293.729 405.329 292.385 405.22 291.041 405.11C288.356 404.891 285.675 404.672 282.99 404.45C282.36 404.399 281.734 404.347 281.104 404.296C273.882 403.703 266.663 403.095 259.441 402.476C259.128 402.451 258.818 402.425 258.494 402.396C248.436 401.54 238.381 400.654 228.327 399.759C217.499 398.796 206.663 397.876 195.824 396.984C191.125 396.597 186.422 396.198 181.722 395.799C180.194 395.67 178.662 395.541 177.129 395.412C176.684 395.374 176.234 395.338 175.77 395.3C174.909 395.226 174.043 395.155 173.178 395.084C170.835 394.884 168.493 394.675 166.154 394.443C161.123 393.948 156.085 393.506 151.047 393.059C150.778 393.036 150.505 393.011 150.225 392.988C137.681 391.871 125.126 390.834 112.57 389.804C112.099 389.765 111.627 389.73 111.141 389.688C110.28 389.617 109.421 389.546 108.56 389.479C107.484 389.389 106.412 389.302 105.337 389.211C105.042 389.189 104.748 389.163 104.442 389.141C101.676 388.912 98.9249 388.606 96.17 388.291C95.1277 388.175 94.0891 388.062 93.0468 387.949C92.7779 387.92 92.5091 387.891 92.2329 387.859C91.581 387.788 90.9291 387.718 90.2772 387.647C86.1928 375.528 82.1304 363.403 78.1712 351.248C77.0148 347.697 75.8472 344.149 74.6613 340.604C73.6375 337.542 72.6209 334.477 71.6118 331.409C69.6267 325.398 69.6267 325.398 67.6268 319.39C66.2788 315.365 64.953 311.338 63.6234 307.31C62.3896 303.578 61.1558 299.843 59.9036 296.115C59.2922 294.28 58.6882 292.445 58.0915 290.606C57.9737 290.246 57.9737 290.246 57.8522 289.879C57.7343 289.518 57.7343 289.518 57.6165 289.144C57.4544 288.649 57.2923 288.153 57.1303 287.657C57.0493 287.409 56.9682 287.164 56.8872 286.91C55.9775 284.119 55.0531 281.334 54.0697 278.561C52.8175 275.02 51.65 271.459 50.4899 267.895C50.2689 267.215 50.0442 266.533 49.8232 265.853C49.5065 264.891 49.1935 263.928 48.8804 262.962C48.7846 262.669 48.6852 262.379 48.5858 262.077C48.501 261.806 48.4127 261.533 48.3206 261.253C48.2432 261.014 48.1659 260.776 48.0886 260.531C47.805 259.327 47.7902 258.471 48.3758 257.344C49.2487 256.304 49.9853 255.692 51.2375 254.997C52.3977 254.842 53.5062 254.932 54.6737 255.026C55.0126 255.045 55.3514 255.068 55.7013 255.087C56.7915 255.158 57.8816 255.238 58.9718 255.319C59.6568 255.364 60.3455 255.409 61.0306 255.454C62.931 255.583 64.8314 255.721 66.7282 255.866C68.0725 255.966 69.4204 256.066 70.7684 256.166C72.3263 256.281 73.8879 256.397 75.4458 256.513C82.8744 257.064 90.303 257.605 97.7316 258.146C100.394 258.339 103.053 258.532 105.716 258.725C107.414 258.851 109.112 258.973 110.81 259.099C111.602 259.157 112.39 259.211 113.178 259.269C117.756 259.604 122.334 259.933 126.912 260.248C129.166 260.403 131.413 260.576 133.663 260.77C134.005 260.799 134.348 260.828 134.701 260.857C134.989 260.879 135.272 260.905 135.567 260.931C140.432 261.34 145.305 261.697 150.174 262.067C151.124 262.141 152.078 262.215 153.032 262.286C160.563 262.862 168.095 263.432 175.63 263.996C175.973 264.018 176.312 264.044 176.665 264.07C179.973 264.318 183.284 264.562 186.591 264.81C197.493 265.615 197.493 265.615 202.251 266.021C206.91 266.417 211.576 266.755 216.239 267.103C217.37 267.19 218.497 267.273 219.627 267.36C226.717 267.895 233.811 268.4 240.911 268.841C240.956 268.6 241 268.362 241.048 268.114C241.453 265.95 241.898 263.796 242.396 261.649C242.503 261.188 242.503 261.188 242.609 260.718C244.031 254.588 245.475 248.464 247.033 242.36C247.184 241.764 247.335 241.172 247.482 240.579C250.881 227.002 260.034 213.753 272.953 205.414C273.318 205.308 273.683 205.202 274.058 205.092C274.309 204.432 274.556 203.772 274.784 203.106C275.528 201.312 276.673 199.667 277.741 198.009C277.355 198.006 277.355 198.006 276.957 197.999C272.408 197.935 267.908 197.829 263.422 197.104C263.116 197.053 262.811 197.004 262.494 196.953C258.251 196.212 254.284 194.986 250.395 193.34C249.997 193.173 249.6 193.002 249.187 192.828C243.891 190.53 239.39 187.584 235.177 183.971C234.684 183.549 234.183 183.134 233.678 182.722C223.638 174.286 217.462 162.634 212.921 151.324C212.803 151.034 212.689 150.744 212.567 150.445C210.512 145.268 209.028 139.946 207.765 134.582C207.706 134.334 207.643 134.086 207.584 133.831C207.234 132.083 207.665 130.654 208.225 128.986C208.313 128.719 208.398 128.448 208.49 128.171C208.66 127.643 208.833 127.115 209.009 126.587C209.194 126.021 209.363 125.451 209.529 124.878C210.715 120.892 213.948 118.261 217.524 115.766C221.296 113.103 224.176 110.161 224.817 105.827C224.931 104.732 225.03 103.634 225.119 102.536C225.318 100.482 225.645 98.5633 227.144 96.8891C228.618 95.8298 230.109 94.9734 231.774 94.1556C234.606 92.7518 235.95 91.3352 236.86 88.5405C237.008 87.6294 237.019 86.744 237 85.8231C236.996 85.572 236.993 85.3209 236.989 85.0633C236.893 81.8018 236.157 78.6884 235.273 75.5267C235.188 75.2272 235.103 74.931 235.019 74.6219C234.853 74.0456 234.687 73.4661 234.514 72.8898C233.987 71.0803 233.833 69.4801 233.914 67.6127Z" fill="#738FB7"/>
<path d="M590.427 104.317C590.67 104.636 590.913 104.954 591.164 105.283C589.989 104.945 588.818 104.597 587.658 104.223C583.006 102.784 578.612 102.269 573.905 103.972C573.04 104.333 573.04 104.333 572.012 104.961C573.088 105.276 574.159 105.592 575.235 105.907C575.691 106.039 575.691 106.039 576.156 106.178C576.45 106.265 576.745 106.348 577.047 106.439C577.452 106.558 577.452 106.558 577.864 106.68C579.75 107.198 581.415 107.273 583.385 107.276C583.82 107.282 583.82 107.282 584.265 107.285C585.993 107.292 587.319 107.099 588.954 106.571C590.015 106.693 590.015 106.693 590.795 106.893C590.718 107.652 590.718 107.652 590.427 108.502C587.665 110.199 583.717 110.122 580.483 109.79C578.708 109.478 577.032 109.034 575.327 108.502C574.782 108.341 574.782 108.341 574.226 108.174C572.52 107.633 571.559 107.285 570.539 105.927C567.703 108.477 565.383 111.291 563.048 114.188C562.462 114.91 561.869 115.624 561.276 116.339C555.888 122.852 550.43 130.267 549.546 138.445C549.789 138.445 550.032 138.445 550.283 138.445C550.386 138.719 550.489 138.989 550.596 139.269C551.697 141.993 552.827 144.163 555.674 145.747C557.277 146.298 558.654 146.343 560.367 146.333C560.849 146.333 560.849 146.333 561.339 146.333C564.083 146.279 566.44 145.747 568.996 144.914C570.171 144.563 570.171 144.563 571.644 144.563C571.644 145.094 571.644 145.625 571.644 146.172C571.939 146.066 572.237 145.96 572.543 145.85C574.399 145.396 576.093 145.065 577.894 145.841C586.24 151.462 590.272 163.8 593.79 172.046C600.018 186.631 607.214 200.82 614.982 214.825C615.468 215.714 615.95 216.602 616.433 217.494C618.716 221.744 621.169 225.898 623.725 230.028C623.861 230.251 624.001 230.476 624.141 230.708C624.403 231.126 624.661 231.545 624.922 231.963C625.784 233.354 625.784 233.354 625.784 234.069C626.067 234.088 626.351 234.108 626.646 234.127C627.014 234.156 627.382 234.182 627.765 234.211C628.13 234.236 628.498 234.262 628.878 234.288C629.835 234.391 629.835 234.391 630.572 234.713C630.586 234.5 630.601 234.288 630.616 234.069C630.804 231.783 631.294 229.687 632.023 227.488C632.133 227.144 632.247 226.799 632.362 226.445C634.63 219.677 637.492 213.099 640.884 206.702C641.079 206.335 641.271 205.971 641.47 205.594C644.169 200.543 647.068 195.636 650.272 190.81C651.156 189.457 652.003 188.089 652.854 186.721C655.52 182.451 658.389 178.292 661.258 174.125C667.155 165.558 672.992 156.942 678.226 148.046C678.834 147.113 679.452 146.314 680.292 145.528C681.257 145.545 681.942 145.657 682.87 145.85C683.658 145.966 684.45 146.082 685.242 146.192C685.923 146.292 686.608 146.395 687.29 146.494C687.665 145.516 688.037 144.537 688.384 143.548C689.396 140.928 690.56 139.363 693.183 137.801C693.433 137.647 693.683 137.492 693.945 137.334C695.481 136.536 696.917 136.162 698.678 135.956C702.954 135.573 702.954 135.573 706.342 133.5C706.968 132.766 707.572 132.016 708.172 131.265C710.688 128.39 714.688 126.333 718.227 124.601C718.595 124.414 718.595 124.414 718.971 124.224C723.497 121.954 728.223 120.187 733.051 118.483C733.349 118.377 733.648 118.274 733.957 118.165C734.822 117.859 735.688 117.556 736.557 117.257C736.811 117.167 737.069 117.076 737.334 116.986C741.813 115.444 746.608 114.15 751.37 115.666C755.944 117.553 760.578 121.008 762.423 125.245C762.301 125.563 762.18 125.882 762.054 126.211C761.911 125.988 761.767 125.766 761.62 125.538C759.101 121.841 755.558 118.825 750.733 117.579C749.204 117.292 747.783 117.17 746.218 117.195C751.053 122.514 751.053 122.514 757.635 125.889C757.948 125.985 758.257 126.079 758.578 126.178C759.366 126.413 760.154 126.639 760.95 126.854C760.828 127.386 760.706 127.917 760.581 128.464C756.151 128.748 752.648 126.52 749.367 124.098C748.346 123.271 747.492 122.337 746.63 121.381C746.358 121.091 746.358 121.091 746.078 120.792C745.816 120.505 745.816 120.505 745.555 120.216C745.396 120.045 745.242 119.874 745.08 119.697C744.638 118.947 744.689 118.351 744.744 117.517C741.496 117.917 738.568 118.944 735.559 120.032C735.305 120.125 735.047 120.216 734.786 120.312C719.346 125.666 719.346 125.666 707.178 135.226C707.299 135.544 707.421 135.863 707.546 136.191C707.425 136.62 707.303 137.051 707.178 137.479C706.788 141.584 706.788 141.584 708.651 145.207C711.631 148.159 716.245 149.08 720.437 150.036C720.197 151.385 719.858 152.612 719.332 153.9C719.652 154.07 719.652 154.07 719.976 154.244C721.214 155.02 722.123 155.664 722.54 156.974C722.967 167.4 716.22 178.041 711.384 187.233C698.188 212.343 687.433 238.821 679.346 265.522C673.353 285.297 667.21 301.527 645.926 312.419C633.676 318.604 620.234 323.044 606.588 326.222C605.682 326.438 604.78 326.666 603.885 326.908C594.081 329.519 583.665 330.81 573.485 331.625C573.047 331.66 573.047 331.66 572.601 331.695C560.801 332.655 549.016 332.677 537.175 332.613C535.985 332.607 534.796 332.6 533.606 332.594C533.319 332.591 533.035 332.591 532.74 332.587C527.897 332.565 523.076 332.671 518.241 332.913C519.224 332.04 520.211 331.258 521.327 330.517C521.618 330.321 521.909 330.124 522.207 329.918C522.844 329.493 523.489 329.078 524.133 328.666C527.223 326.364 530.067 322.8 530.49 319.219C530.777 315.233 530.486 311.566 528.921 307.799C528.767 307.416 528.767 307.416 528.608 307.023C527.172 303.459 525.529 300.04 523.515 296.698C522.918 295.703 522.332 294.705 521.743 293.707C519.128 289.251 519.128 289.251 516.443 284.824C514.403 281.517 512.657 278.156 510.996 274.688C507.843 268.149 504.547 261.671 500.93 255.319C500.765 255.026 500.599 254.733 500.43 254.433C497.015 248.442 493.104 242.633 488.176 237.492C487.646 236.941 487.127 236.384 486.607 235.827C483.024 232.034 479.068 228.792 474.413 226.02C481.462 219.857 503.895 220.769 513.615 220.746C528.634 220.765 543.893 221.796 558.385 225.376C558.311 225.199 558.241 225.019 558.168 224.835C556.326 220.234 554.746 215.601 553.314 210.891C553.185 210.466 553.056 210.038 552.927 209.613C552.861 209.397 552.794 209.184 552.728 208.965C552.26 207.433 551.752 205.91 551.229 204.39C550.242 201.496 549.384 198.572 548.54 195.646C548.275 194.728 548.006 193.81 547.738 192.893C547.115 190.755 546.496 188.62 545.878 186.483C544.872 182.996 543.775 179.551 542.548 176.115C541.561 173.35 540.607 170.581 539.742 167.783C539.639 167.474 539.539 167.165 539.436 166.846C539.307 166.414 539.307 166.414 539.175 165.977C539.097 165.725 539.016 165.474 538.939 165.217C538.847 164.347 539.057 163.958 539.602 163.237C540.559 162.618 540.559 162.618 541.672 162.029C542.044 161.833 542.412 161.633 542.791 161.43C543.075 161.282 543.362 161.134 543.653 160.983C543.045 159.576 542.29 158.256 541.513 156.92C541.248 156.459 540.987 155.999 540.725 155.538C540.276 154.75 539.819 153.967 539.355 153.188C537.79 150.448 537.79 150.448 538.217 148.777C539.779 145.036 542.71 141.813 546.6 139.733C546.843 139.733 547.086 139.733 547.336 139.733C547.307 139.369 547.277 139.002 547.244 138.626C547.292 130.01 553.549 121.494 559.321 114.922C560.127 113.989 560.901 113.032 561.678 112.079C562.657 110.882 563.648 109.69 564.646 108.502C564.878 108.226 564.878 108.226 565.114 107.942C567.453 105.193 570.432 102.491 574.332 101.548C580.034 100.811 585.503 101.625 590.427 104.317Z" fill="#4F6098"/>
<path d="M60.0767 294.983C60.3676 295.695 60.6107 296.393 60.8391 297.121C61.0011 297.623 61.1632 298.129 61.3289 298.631C61.4652 299.063 61.4652 299.063 61.6088 299.5C62.1465 301.165 62.7063 302.83 63.2625 304.491C63.616 305.563 63.9733 306.632 64.3268 307.704C64.4742 308.145 64.6215 308.586 64.7688 309.027C64.8425 309.246 64.9124 309.465 64.9898 309.691C65.2108 310.354 65.4281 311.017 65.649 311.68C67.0965 316.037 68.5439 320.39 69.9618 324.752C70.9525 327.785 71.9654 330.808 72.9819 333.835C74.6539 338.829 76.315 343.825 77.9023 348.838C78.359 350.271 78.8268 351.701 79.2982 353.13C79.4382 353.552 79.5781 353.971 79.7144 354.392C79.9832 355.201 80.2521 356.012 80.521 356.82C80.6425 357.181 80.7603 357.541 80.8856 357.915C80.9924 358.237 81.0992 358.559 81.2097 358.89C81.438 359.698 81.438 359.698 81.438 360.664C79.0588 360.5 76.7975 360.207 74.4845 359.695C74.1788 359.628 73.8732 359.563 73.5601 359.496C72.5546 359.277 71.5529 359.054 70.5511 358.832C70.2012 358.755 69.8513 358.678 69.4904 358.6C52.8507 354.917 36.0636 351.034 20.6687 344.244C20.3446 344.102 20.0168 343.957 19.6853 343.809C12.1426 340.448 3.33287 335.857 0.456454 328.468C-0.556368 325.065 0.172863 322.547 2.08433 319.52C7.60882 311.507 18.923 307.186 28.403 303.676C28.7087 303.56 29.0144 303.448 29.3274 303.329C34.4173 301.442 39.6545 299.942 44.9065 298.444C45.2453 298.348 45.5804 298.251 45.9266 298.155C49.4218 297.157 52.928 296.191 56.4674 295.312C56.7473 295.238 57.0272 295.167 57.3144 295.096C59.2517 294.623 59.2517 294.623 60.0767 294.983Z" fill="black"/>
<path d="M672.926 283.974C673.048 284.293 673.169 284.611 673.294 284.94C673.563 284.956 673.828 284.972 674.105 284.988C676.826 285.165 679.482 285.484 682.167 285.906C682.785 286.002 682.785 286.002 683.419 286.102C684.756 286.308 686.093 286.521 687.43 286.73C687.89 286.804 688.35 286.875 688.826 286.952C700.287 288.761 711.594 290.857 722.901 293.311C723.328 293.404 723.755 293.494 724.197 293.591C732.719 295.442 741.153 297.561 749.488 299.992C749.761 300.072 750.033 300.153 750.317 300.233C782.543 309.663 782.543 309.663 789.334 320.398C789.448 320.597 789.563 320.794 789.677 321C789.795 321.19 789.909 321.377 790.03 321.573C791.382 324.126 791.198 327.281 790.229 329.915C787.047 336.589 779.42 340.695 772.367 343.859C772.013 344.017 771.66 344.178 771.295 344.339C765.174 347.06 758.964 349.301 752.479 351.265C751.867 351.455 751.867 351.455 751.245 351.648C738.682 355.544 725.725 358.502 712.702 360.965C711.259 361.239 709.815 361.526 708.375 361.812C700.162 363.435 691.893 364.774 683.607 366.075C683.323 366.12 683.04 366.165 682.745 366.21C675.014 367.427 667.262 368.48 659.487 369.472C658.787 369.562 658.087 369.652 657.388 369.742C656.876 369.807 656.876 369.807 656.349 369.874C654.264 370.142 652.183 370.438 650.106 370.75C646.18 371.339 642.232 371.751 638.284 372.173C637.499 372.257 636.715 372.341 635.93 372.427C634.373 372.595 632.815 372.762 631.257 372.926C629.647 373.1 628.038 373.274 626.428 373.448C620.922 374.047 615.416 374.607 609.895 375.077C607.851 375.254 605.822 375.46 603.793 375.728C600.71 376.12 597.624 376.375 594.523 376.619C594.029 376.658 594.029 376.658 593.525 376.7C590.773 376.919 588.022 377.131 585.271 377.344C584.818 377.379 584.361 377.415 583.893 377.45C553.7 379.784 523.445 381.613 493.152 382.608C492.798 382.621 492.445 382.634 492.084 382.647C491.439 382.666 490.799 382.689 490.154 382.708C488.309 382.769 486.471 382.866 484.63 382.978C481.952 383.136 479.278 383.233 476.597 383.3C476.103 383.313 475.614 383.326 475.12 383.339C474.092 383.368 473.061 383.394 472.03 383.423C470.789 383.452 469.548 383.487 468.307 383.519C452.274 383.957 436.242 384.157 420.203 384.147C417.986 384.147 415.765 384.147 413.548 384.15C409.832 384.15 406.116 384.15 402.399 384.147C398.157 384.144 393.914 384.147 389.671 384.147C385.97 384.15 382.265 384.15 378.563 384.147C376.375 384.147 374.191 384.147 372.004 384.15C360.837 384.153 349.677 384.041 338.511 383.783C338.864 383.368 339.218 382.956 339.571 382.54C339.767 382.309 339.965 382.08 340.168 381.842C340.757 381.166 341.38 380.535 342.054 379.92C342.286 379.707 342.514 379.495 342.753 379.276C342.985 379.063 343.217 378.851 343.461 378.632C345.077 377.147 346.687 375.663 348.201 374.095C348.823 373.48 348.823 373.48 349.464 372.968C351.217 371.5 351.305 370.129 351.357 368.052C351.357 367.482 351.357 367.482 351.357 366.899C351.364 366.51 351.372 366.123 351.379 365.721C351.394 364.765 351.401 363.812 351.401 362.855C348.97 362.855 346.54 362.855 344.035 362.855C345.055 362.411 345.88 362.083 346.941 361.796C347.331 361.69 347.331 361.69 347.733 361.584C348.002 361.513 348.271 361.439 348.547 361.368C348.823 361.294 349.096 361.22 349.379 361.143C350.053 360.962 350.727 360.782 351.401 360.602C351.677 360.856 351.954 361.11 352.237 361.371C354.115 362.942 356.071 363.274 358.616 363.242C360.071 363.136 361.393 362.746 362.774 362.353C365.367 361.664 367.488 361.378 370.184 361.89C373.606 362.537 376.549 362.424 379.539 360.75C379.849 360.576 380.158 360.399 380.475 360.219C382.242 359.256 383.601 359.037 385.653 359.314C385.889 359.369 386.128 359.42 386.371 359.475C389.402 360.119 392.286 359.526 395.236 358.892C399.129 358.087 403.022 357.543 406.985 357.07C416.804 355.888 426.387 354.346 435.808 351.593C439.745 350.457 443.645 350.009 447.759 349.642C454.087 349.069 459.453 347.807 465.205 345.469C473.706 342.027 481.311 340.553 490.633 339.919C494.338 339.661 498.002 339.265 501.667 338.708C501.925 338.669 502.183 338.631 502.448 338.592C507.339 337.81 512.399 335.991 516.465 333.476C521.629 330.675 531.963 332.262 537.941 332.294C549.826 332.359 561.637 332.275 573.485 331.303C573.769 331.28 574.049 331.258 574.34 331.235C585.893 330.301 597.358 328.415 608.474 325.507C608.842 325.411 609.214 325.314 609.593 325.214C631.168 319.512 657.192 311.428 668.554 293.024C670.304 290.101 671.678 287.084 672.926 283.974Z" fill="black"/>
<path d="M269.639 0C270.265 0.528024 270.873 1.06571 271.48 1.60983C271.727 1.82555 271.97 2.04126 272.224 2.26342C275.635 5.39615 278.169 9.04402 279.583 13.2006C280.504 12.4247 281.285 11.668 281.999 10.7472C283.984 8.39365 286.478 6.36204 289.527 5.15145C288.805 6.91904 287.693 8.48702 286.617 10.1033C285.778 11.2559 285.778 11.2559 285.476 12.5567C285.796 12.3925 286.12 12.2283 286.452 12.0608C294.82 7.91714 305.228 5.60864 314.726 7.80123C319.834 9.09231 322.972 11.8451 325.62 15.7763C327.598 19.1988 328.346 22.2671 328.198 26.0792C328.449 26.0084 328.699 25.9408 328.957 25.8667C336.356 24.009 343.634 25.5576 350.293 28.7065C355.898 31.7007 359.463 36.0054 361.124 41.5593C361.478 43.0629 361.526 44.5279 361.507 46.0604C361.504 46.3792 361.504 46.6979 361.504 47.0231C361.43 50.3522 360.708 53.5107 359.504 56.666C359.74 56.6499 359.979 56.637 360.222 56.6209C365.393 56.4406 370.185 58.2146 374.144 61.0737C377.337 63.7041 379.458 67.1685 379.886 71.0031C380.055 76.8597 378.35 82.6937 374.604 87.5747C374.928 87.6069 375.252 87.6391 375.584 87.6745C379.466 88.3764 382.158 91.0423 384.257 93.7951C388.239 99.2588 391.656 106.065 390.025 112.617C388.367 118.702 384.25 122.627 378.287 125.889C377.436 126.339 376.586 126.768 375.709 127.176C375.864 127.437 376.018 127.698 376.18 127.965C376.383 128.31 376.582 128.654 376.792 129.008C376.991 129.347 377.193 129.688 377.399 130.039C379.285 133.68 378.722 138.848 377.3 142.557C375.742 145.892 373.676 148.652 370.921 151.324C370.667 151.575 370.417 151.826 370.155 152.087C368.207 153.912 366.026 155.2 363.607 156.491C362.686 156.99 361.828 157.502 360.977 158.085C361.309 158.613 361.309 158.613 361.644 159.151C363.798 163.024 363.688 166.743 363.555 170.964C362.233 171.379 361.511 171.192 360.222 170.751C359.854 170.629 359.485 170.507 359.106 170.381C358.716 170.249 358.322 170.114 357.916 169.979C353.478 168.523 349.007 167.425 344.404 166.456C343.914 166.35 343.42 166.244 342.93 166.134C342.735 165.149 342.555 164.164 342.396 163.175C342.267 162.39 342.113 161.611 341.932 160.835C341.321 157.358 342.684 155.181 344.481 152.155C345.553 150.339 346.381 148.478 347.166 146.556C347.287 146.266 347.405 145.976 347.53 145.677C349.125 141.729 349.626 138.081 349.582 133.899C349.582 133.435 349.582 133.435 349.578 132.965C349.575 132.215 349.567 131.468 349.56 130.718C349.803 130.644 350.05 130.57 350.3 130.493C352.296 129.849 353.725 129.305 355.084 127.82C355.257 127.634 355.43 127.447 355.607 127.254C360.193 121.832 361.062 114.388 361.069 107.878C361.069 107.656 361.069 107.43 361.069 107.202C361.065 103.895 360.922 100.756 359.872 97.5556C359.765 97.224 359.659 96.8956 359.548 96.5543C358.347 93.3025 356.204 90.9135 352.782 89.2457C350.248 88.5438 348.204 88.5599 345.785 89.5676C343.324 90.7042 341.605 92.2013 339.984 94.1363C336.386 98.3251 336.386 98.3251 335.196 98.8435C334.644 98.8853 334.091 98.9079 333.535 98.924C333.204 98.9336 332.868 98.9433 332.526 98.9562C331.83 98.9755 331.13 98.9916 330.434 99.0109C328.346 99.0785 326.526 99.3232 324.515 99.8094C322.969 100.006 321.816 99.9188 320.394 99.2878C318.641 97.9903 317.558 96.6702 316.435 94.9413C315.514 93.5858 314.826 92.6907 313.098 92.0822C311.481 92.0403 309.986 92.1917 308.494 92.7454C306.48 93.4055 304.498 93.2638 302.532 92.5651C299.884 90.9972 298.322 88.7016 296.834 86.29C295.81 84.6448 294.86 83.1573 292.864 82.3427C292.624 82.2429 292.389 82.1399 292.142 82.0369C290.267 81.4155 288.555 81.4509 286.581 81.5797C286.323 81.5926 286.065 81.6054 285.8 81.6215C284.758 81.6827 283.745 81.76 282.721 81.9467C279.822 82.4297 275.734 82.6776 273.156 81.2352C271.414 79.9505 270.32 78.4824 269.179 76.7695C267.849 74.9246 266.486 73.8139 264.114 73.0862C260.465 72.4487 257.017 73.582 253.585 74.564C249.909 75.6136 246.351 75.7585 242.753 74.3741C239.582 72.7578 236.433 70.5523 234.282 67.9348C234.131 70.2787 234.698 72.3489 235.343 74.6156C238.728 86.7408 238.728 86.7408 236.26 91.1066C234.511 93.3701 231.763 94.6225 229.108 95.949C227.24 97.0501 226.345 98.2253 225.811 100.131C225.664 101.162 225.576 102.195 225.487 103.229C225.078 107.234 224.191 110.305 221.023 113.332C220.828 113.522 220.629 113.712 220.427 113.908C219.189 115.045 217.845 116.017 216.442 116.996C210.634 121.117 208.656 126.587 207.765 132.972C207.868 133.87 207.868 133.87 208.122 134.778C208.21 135.123 208.295 135.467 208.387 135.821C208.487 136.192 208.582 136.559 208.685 136.935C208.789 137.322 208.888 137.708 208.995 138.104C214.32 157.966 224.228 178.788 244.595 190.282C248.771 192.471 253.272 194.316 257.853 195.755C254.34 199.912 248.3 202.871 242.587 203.975C237.571 204.558 232.802 204.319 228.021 202.838C227.642 202.726 227.259 202.613 226.868 202.497C223.863 201.509 221.348 200.018 218.814 198.331C218.508 198.128 218.206 197.925 217.893 197.719C213.646 194.667 210.939 190.526 210.343 185.774C209.934 185.784 209.521 185.797 209.098 185.81C201.076 185.961 195.058 184.57 188.981 179.657C184.186 175.584 180.949 170.053 180.787 164.141C180.86 159.962 182.816 156.266 186.035 153.256C185.689 153.017 185.689 153.017 185.332 152.773C184.672 152.312 184.013 151.849 183.354 151.385C182.765 150.97 182.172 150.561 181.568 150.165C177.387 147.28 174.92 142.676 174.249 138.123C173.841 132.283 174.4 126.803 178.669 122.025C178.397 121.88 178.128 121.738 177.848 121.587C174.198 119.613 174.198 119.613 172.776 118.161C172.467 117.849 172.467 117.849 172.146 117.53C168.191 113.374 167.473 108.274 167.988 103.029C168.707 98.6954 170.898 94.7159 174.618 91.7602C176.478 90.5657 178.345 89.5676 180.511 88.8625C180.245 88.6307 179.977 88.3989 179.704 88.1607C173.273 82.5166 170.46 77.0078 170.449 69.0649C170.519 63.3596 172.25 58.0247 176.828 53.7683C181.074 50.2588 186.993 48.224 192.871 48.2144C193.291 48.2401 193.707 48.2659 194.138 48.2949C194.119 47.8602 194.119 47.8602 194.097 47.4191C193.92 40.2071 196.152 33.478 201.894 28.1108C206.704 24.0734 212.479 22.4314 219.09 22.4635C221.138 22.5923 223.097 23.0334 225.075 23.5035C225.137 23.3264 225.2 23.1493 225.263 22.9658C227.443 16.9547 231.233 11.9353 237.59 8.79288C239.972 7.7143 242.4 6.80958 244.963 6.11735C245.482 5.97246 245.482 5.97246 246.013 5.82436C252.005 4.42703 259.452 4.35298 265.219 6.43931C265.672 6.5842 265.672 6.5842 266.133 6.7323C268.946 7.70786 271.285 9.3692 273.69 10.9468C273.594 10.6957 273.499 10.4446 273.399 10.1838C273.035 9.24364 272.674 8.30028 272.313 7.35692C272.084 6.75162 271.852 6.14633 271.62 5.54103C271.473 5.15789 271.326 4.77153 271.171 4.37551C270.968 3.84749 270.968 3.84749 270.762 3.30659C270.361 2.2119 269.996 1.11078 269.639 0Z" fill="#7F4314"/>
<path d="M233.914 67.6127C234.93 68.2728 235.741 68.8845 236.514 69.7667C238.871 72.3263 242.639 74.6316 246.436 75.018C249.986 75.3206 253.319 74.4255 256.649 73.4307C259.422 72.6032 262.324 72.2072 265.146 73.0862C267.598 74.2356 268.957 75.8679 270.375 77.9156C271.745 79.8185 273.038 81.0838 275.532 81.7792C276.53 81.8404 277.48 81.8694 278.478 81.8597C278.754 81.8597 279.03 81.8565 279.314 81.8565C281.432 81.8275 283.465 81.5957 285.553 81.2834C288.691 80.8327 291.696 81.1578 294.322 82.7966C295.552 83.7336 296.293 84.8283 297.077 86.0646C297.361 86.496 297.648 86.9275 297.935 87.3557C298.071 87.5617 298.208 87.7646 298.348 87.9771C299.721 89.9797 301.261 91.9598 303.891 92.7261C306.17 92.9128 308.004 92.6681 310.141 91.9791C311.717 91.5155 312.715 91.5992 314.203 92.2238C315.65 93.3024 316.534 94.5355 317.518 95.9457C318.623 97.4944 319.672 98.6567 321.569 99.4874C323.156 99.5582 324.298 99.5389 325.845 99.1686C327.996 98.6728 330.187 98.7404 332.397 98.7468C334.574 98.705 334.574 98.705 336.448 97.8228C337.398 96.9181 338.135 96.0198 338.879 94.9798C341.273 92.1498 343.77 89.6899 347.718 88.5405C350.926 88.1799 353.25 88.9559 355.81 90.6236C359.607 93.5986 360.955 98.4152 361.345 102.707C361.721 111.143 361.644 120.319 355.821 127.498C355.607 127.798 355.397 128.097 355.176 128.403C353.703 129.656 351.644 130.718 349.56 130.718C349.619 130.879 349.677 131.04 349.74 131.204C351.832 140.116 346.606 149.405 342.194 157.119C342.208 157.782 342.253 158.449 342.308 159.112C342.326 159.321 342.345 159.528 342.359 159.743C342.474 161.073 342.61 162.396 342.753 163.723C344.75 182.287 339.174 201.56 325.587 216.213C319.337 222.791 311.238 227.201 301.427 228.074C295.792 228.251 289.906 226.741 285.704 223.364C282.596 220.424 280.629 217.089 280.644 213.061C280.64 212.719 280.64 212.381 280.64 212.03C280.688 210.887 280.688 210.887 280.872 209.645C281.196 207.278 281.093 204.88 281.078 202.497C281.078 201.998 281.074 201.499 281.074 201C281.071 199.789 281.063 198.576 281.056 197.365C280.802 197.416 280.548 197.468 280.286 197.523C278.18 197.848 276.029 197.78 273.896 197.787C273.517 197.79 273.517 197.79 273.127 197.79C265.112 197.793 257.632 196.405 250.395 193.34C249.997 193.173 249.6 193.002 249.187 192.828C243.891 190.53 239.39 187.584 235.177 183.971C234.684 183.549 234.183 183.134 233.678 182.722C223.638 174.286 217.462 162.634 212.921 151.324C212.744 150.889 212.744 150.889 212.567 150.445C210.512 145.268 209.028 139.946 207.765 134.582C207.706 134.334 207.643 134.086 207.584 133.831C207.234 132.083 207.665 130.654 208.225 128.986C208.313 128.719 208.398 128.448 208.49 128.171C208.66 127.643 208.833 127.115 209.009 126.587C209.194 126.021 209.363 125.451 209.529 124.878C210.715 120.892 213.948 118.261 217.524 115.766C221.296 113.103 224.176 110.161 224.817 105.827C224.931 104.732 225.03 103.634 225.119 102.536C225.318 100.482 225.645 98.5633 227.144 96.8891C228.618 95.8298 230.109 94.9734 231.774 94.1556C234.606 92.7518 235.95 91.3352 236.86 88.5405C237.007 87.6294 237.019 86.7439 237 85.8231C236.993 85.4464 236.993 85.4464 236.989 85.0633C236.893 81.8018 236.157 78.6884 235.273 75.5267C235.188 75.2272 235.103 74.931 235.019 74.6219C234.853 74.0456 234.687 73.4661 234.514 72.8898C233.987 71.0803 233.833 69.4801 233.914 67.6127Z" fill="#E9C3AD"/>
<path d="M54.6473 254.462C54.9898 254.481 55.3323 254.501 55.6822 254.52C56.7797 254.588 57.8772 254.662 58.9711 254.739C59.6598 254.784 60.3485 254.829 61.0336 254.874C62.934 255 64.8307 255.141 66.7275 255.283C68.0754 255.386 69.4197 255.486 70.7677 255.586C72.3256 255.702 73.8872 255.814 75.4451 255.93C82.8737 256.484 90.3023 257.022 97.7309 257.563C100.394 257.756 103.056 257.952 105.716 258.145C107.413 258.268 109.115 258.393 110.813 258.516C111.601 258.574 112.389 258.632 113.177 258.69C117.755 259.024 122.333 259.353 126.911 259.665C129.165 259.823 131.415 259.993 133.662 260.187C134.005 260.216 134.347 260.245 134.701 260.274C134.988 260.299 135.272 260.325 135.566 260.348C140.431 260.757 145.304 261.117 150.173 261.487C151.127 261.561 152.077 261.632 153.031 261.706C160.563 262.283 168.098 262.853 175.63 263.413C175.972 263.439 176.315 263.464 176.665 263.49C179.972 263.738 183.283 263.983 186.59 264.227C197.496 265.035 197.496 265.035 202.25 265.441C206.909 265.834 211.576 266.175 216.238 266.523C217.369 266.607 218.496 266.694 219.627 266.777C226.72 267.312 233.81 267.82 240.911 268.262C241.032 267.943 241.154 267.624 241.279 267.296C241.279 267.721 241.279 268.146 241.279 268.584C241.677 268.596 242.078 268.609 242.487 268.625C248.126 268.838 253.75 269.244 259.374 269.652C260.394 269.727 261.414 269.801 262.434 269.875C263.668 269.962 264.898 270.052 266.132 270.142C266.585 270.174 267.034 270.206 267.502 270.242C269.815 270.409 272.12 270.599 274.426 270.837C276.319 275.715 277.976 280.654 279.604 285.606C279.814 286.237 280.02 286.868 280.23 287.496C282.219 293.539 284.197 299.582 286.167 305.629C286.55 306.804 286.933 307.976 287.316 309.151C287.681 308.832 288.046 308.514 288.421 308.185C288.55 308.321 288.679 308.459 288.808 308.601C289.408 309.248 290.009 309.892 290.609 310.539C290.808 310.755 291.01 310.97 291.217 311.192C291.644 311.653 292.075 312.113 292.502 312.574C292.996 313.105 293.485 313.639 293.972 314.174C296.016 316.405 298.211 318.446 300.531 320.459C300.866 320.755 301.205 321.054 301.551 321.36C303.816 323.334 306.181 325.117 308.678 326.859C309.348 327.349 310.022 327.838 310.692 328.327C312.707 329.77 314.814 331.058 316.987 332.31C317.37 332.532 317.753 332.755 318.143 332.983C321.196 334.731 324.308 336.357 327.546 337.829C328.15 338.106 328.75 338.395 329.347 338.688C334.009 340.466 341.051 338.279 345.795 337.378C346.163 337.31 346.532 337.239 346.915 337.169C347.246 337.104 347.578 337.043 347.92 336.975C348.822 336.84 348.822 336.84 350.296 336.84C350.34 337.04 350.384 337.243 350.432 337.452C350.524 337.867 350.524 337.867 350.62 338.289C350.686 338.585 350.752 338.885 350.819 339.191C351.032 340.118 351.032 340.118 351.448 341.225C352.277 344.097 351.879 347.327 351.4 350.221C350.855 353.582 350.973 356.953 351.032 360.344C349.209 360.875 347.386 361.406 345.508 361.954C347.452 362.06 349.397 362.166 351.4 362.276C352.115 370.016 352.115 370.016 350.509 372.044C349.452 373.1 348.233 373.96 346.981 374.832C346.539 375.248 346.104 375.676 345.692 376.12C344.366 377.459 342.985 378.754 341.604 380.054C340.62 380.985 339.644 381.919 338.694 382.881C337.556 384.031 336.378 385.145 335.195 386.262C333.803 387.576 332.426 388.899 331.085 390.258C330.024 391.31 328.934 392.337 327.844 393.371C326.92 394.25 326.006 395.135 325.115 396.04C323.903 397.26 322.644 398.442 321.384 399.624C319.156 401.713 316.953 403.809 314.939 406.063C314.574 405.957 314.21 405.85 313.834 405.741C313.458 404.968 313.458 404.968 313.116 403.912C312.913 403.307 312.913 403.307 312.711 402.689C312.563 402.231 312.416 401.771 312.269 401.314C312.11 400.824 311.948 400.335 311.79 399.849C311.337 398.468 310.888 397.083 310.442 395.699C309.937 394.121 309.425 392.547 308.913 390.969C308.232 388.857 307.547 386.745 306.866 384.636C305.083 379.105 303.264 373.586 301.426 368.071C301.36 367.865 301.293 367.662 301.22 367.45C300.59 365.553 299.96 363.657 299.327 361.76C298.236 358.489 297.154 355.218 296.067 351.947C295.905 351.451 295.743 350.958 295.577 350.466C294.944 348.553 294.31 346.641 293.677 344.728C293.242 343.412 292.808 342.095 292.37 340.778C292.3 340.565 292.23 340.353 292.156 340.131C291.327 337.636 290.495 335.14 289.655 332.648C289.574 332.407 289.493 332.162 289.408 331.911C289.018 330.752 288.624 329.593 288.233 328.431C287.059 324.956 285.932 321.473 284.827 317.983C284.068 315.584 283.254 313.202 282.418 310.822C280.971 306.695 279.63 302.541 278.293 298.385C277.829 296.942 277.365 295.5 276.901 294.057C276.787 293.707 276.676 293.356 276.558 292.995C275.575 289.949 274.562 286.91 273.546 283.87C272.592 281.034 271.667 278.188 270.743 275.345C266.544 274.797 262.342 274.466 258.11 274.173C251.982 273.751 245.857 273.284 239.736 272.747C233.858 272.235 227.976 271.79 222.083 271.385C216.68 271.011 211.277 270.622 205.878 270.232C205.584 270.213 205.293 270.19 204.991 270.168C176.735 268.136 176.735 268.136 163.708 267.106C163.424 267.083 163.144 267.061 162.853 267.038C161.395 266.922 159.937 266.806 158.478 266.69C158.032 266.655 158.032 266.655 157.583 266.62C156.986 266.574 156.39 266.526 155.79 266.478C144.976 265.621 134.156 264.817 123.331 264.034C122.764 263.992 122.764 263.992 122.186 263.95C120.3 263.815 118.418 263.68 116.533 263.542C116.168 263.516 115.803 263.49 115.428 263.461C114.698 263.41 113.973 263.358 113.244 263.303C106.905 262.846 100.57 262.379 94.2357 261.903C93.6022 261.854 93.6022 261.854 92.954 261.803C87.1239 261.365 81.3011 260.905 75.4746 260.435C69.0956 259.919 62.7056 259.462 56.3193 259.021C55.951 258.995 55.5791 258.97 55.1997 258.944C54.511 258.896 53.8186 258.847 53.1299 258.802C51.3804 258.68 49.6568 258.516 47.9221 258.281C48.1652 257.849 48.412 257.421 48.6587 256.993C48.7803 256.761 48.8981 256.529 49.0233 256.291C50.4965 254.214 52.1134 254.282 54.6473 254.462Z" fill="#8F90A1"/>
<path d="M342.93 165.875C349.121 169.639 351.416 175.656 352.742 181.902C354.241 189.977 353.504 198.654 350.664 206.443C350.532 206.813 350.532 206.813 350.395 207.19C349 210.986 347.313 214.53 345.14 218.033C344.915 218.41 344.687 218.787 344.455 219.173C341.582 223.774 337.873 227.795 333.723 231.556C333.413 231.846 333.108 232.136 332.787 232.435C325.454 239.148 315.691 244.177 305.364 246.366C305.051 246.441 304.737 246.511 304.413 246.585C297.931 247.88 290.3 247.381 284.54 244.354C278.975 240.896 276.264 235.249 275.097 229.512C274.066 223.198 274.327 216.195 275.9 209.984C275.977 209.678 276.054 209.373 276.132 209.057C277.214 204.862 278.559 200.799 280.319 196.784C280.562 196.784 280.805 196.784 281.056 196.784C281.384 198.014 281.472 199.157 281.472 200.422C281.472 201.005 281.472 201.005 281.476 201.597C281.472 202.003 281.472 202.405 281.468 202.821C281.472 203.419 281.472 203.419 281.476 204.028C281.472 205.934 281.42 207.801 281.144 209.695C280.533 213.996 281.535 217.406 284.371 220.931C285.236 221.823 285.236 221.823 286.212 222.541C286.392 222.696 286.573 222.85 286.757 223.008C290.617 226.182 296.215 227.284 301.39 227.158C311.754 226.347 319.771 221.337 326.357 214.492C327.277 213.449 328.117 212.377 328.935 211.272C329.17 210.96 329.402 210.644 329.646 210.322C339.431 196.832 343.21 181.677 342.93 165.875Z" fill="#EFF8FD"/>
<path d="M350.296 336.839C350.34 337.042 350.385 337.245 350.433 337.454C350.491 337.727 350.554 338.004 350.62 338.288C350.687 338.587 350.753 338.883 350.819 339.189C351.033 340.116 351.033 340.116 351.445 341.224C352.278 344.099 351.88 347.329 351.401 350.22C350.856 353.584 350.97 356.952 351.033 360.342C349.21 360.874 347.387 361.405 345.508 361.952C347.453 362.058 349.398 362.165 351.401 362.274C348.322 365.487 344.993 368.517 341.711 371.573C341.468 371.798 341.225 372.023 340.978 372.255C339.833 373.318 338.676 374.37 337.491 375.401C336.64 376.138 335.829 376.885 335.056 377.69C334.102 378.656 333.108 379.567 332.065 380.465C330.802 381.553 329.627 382.68 328.475 383.859C327.561 384.754 326.585 385.581 325.606 386.422C324.913 387.04 324.261 387.677 323.617 388.334C322.416 389.558 321.12 390.684 319.805 391.815C318.796 392.713 317.86 393.656 316.932 394.622C316.413 395.115 316.413 395.115 315.676 395.437C314.214 391.309 312.803 387.172 311.455 383.015C310.258 379.338 309.05 375.668 307.842 371.998C307.482 370.909 307.124 369.818 306.767 368.73C305.622 365.259 304.465 361.788 303.276 358.327C303.066 357.715 302.856 357.103 302.646 356.488C302.259 355.355 301.865 354.219 301.467 353.085C301.29 352.58 301.117 352.071 300.944 351.562C300.863 351.337 300.782 351.112 300.697 350.877C300.127 349.18 300.101 347.908 301.073 346.34C304.064 342.708 306.947 340.2 312.089 339.228C314.078 338.961 316.078 339.028 318.089 339.054C318.814 339.057 319.54 339.06 320.261 339.064C321.783 339.073 323.3 339.086 324.817 339.099C326.066 339.109 327.318 339.118 328.57 339.125C329.502 339.131 330.438 339.138 331.369 339.151C336.308 339.173 340.982 338.294 345.785 337.38C346.157 337.309 346.529 337.241 346.915 337.167C347.247 337.106 347.578 337.042 347.921 336.977C348.823 336.839 348.823 336.839 350.296 336.839Z" fill="#E9C3AD"/>
<path d="M593.483 80.3418C593.689 80.4963 593.895 80.6541 594.109 80.8118C594.109 81.0243 594.109 81.2368 594.109 81.4558C594.33 81.5363 594.551 81.6135 594.779 81.694C597.302 82.9755 598.241 86.1951 598.993 88.494C599.346 89.8044 599.53 91.0632 599.633 92.4026C598.138 93.1206 596.915 93.5488 595.214 93.6905C594.967 93.7162 594.72 93.742 594.463 93.7677C586.898 94.1766 579.425 89.5532 573.853 85.6413C572.567 86.0599 571.466 86.5493 570.321 87.2125C569.845 87.4862 569.845 87.4862 569.363 87.7663C569.028 87.9627 568.696 88.1591 568.354 88.3587C568.008 88.5616 567.661 88.7644 567.308 88.9737C564.468 90.6511 561.758 92.4252 559.121 94.3344C558.911 94.489 558.701 94.6403 558.483 94.7948C556.336 96.3435 554.207 97.8953 552.296 99.6694C551.755 100.13 551.755 100.13 551.007 100.51C549.968 101.353 550.042 101.997 549.95 103.217C549.932 103.427 549.909 103.636 549.891 103.852C549.832 104.521 549.781 105.194 549.729 105.867C549.32 111.241 548.488 116.463 543.744 120.356C539.859 123.108 536.43 123.913 531.498 123.633C530.228 123.398 529.027 123.08 527.815 122.667C525.418 125.266 523.149 127.848 521.186 130.717C519.576 129.413 519.068 127.977 518.858 126.106C518.773 123.694 518.987 121.833 520.449 119.77C520.596 119.557 520.744 119.345 520.899 119.126C522.438 117.133 524.559 115.761 526.71 114.296C531.944 110.681 535.693 106.949 539.074 101.962C541.575 98.4105 545.545 95.3969 549.176 92.7246C549.364 92.5861 549.548 92.4477 549.74 92.3028C557.566 86.4334 566.785 80.7603 576.799 78.2361C577.108 78.1589 577.418 78.0816 577.738 78.0011C583.351 76.8163 588.706 77.5503 593.483 80.3418Z" fill="#E6E6E6"/>
<path d="M749.895 95.2244C750.856 95.2212 751.821 95.2116 752.783 95.2019C760.557 95.1568 769.566 96.1066 775.536 100.901C777.182 102.43 778.501 103.959 779.363 105.927C779.518 106.265 779.669 106.603 779.823 106.954C780.788 111.233 779.661 114.961 777.521 118.805C774.306 119.066 771.942 117.997 769.445 116.271C764.856 112.527 761.195 106.986 759.475 101.741C759.475 101.529 759.475 101.316 759.475 101.097C750.823 101.268 742.227 101.754 733.76 103.393C732.272 103.679 730.788 103.847 729.274 103.995C729.186 104.22 729.094 104.442 729.002 104.674C727.451 107.797 724.608 110.605 721.908 113.01C721.702 113.193 721.496 113.38 721.282 113.57C718.317 115.998 714.321 117.524 710.266 117.514C705.324 117.318 702.919 116.452 699.442 113.332C699.199 113.013 698.956 112.694 698.705 112.366C696.415 112.543 694.496 113.187 692.378 113.956C692.05 114.072 691.722 114.188 691.384 114.307C689.995 114.803 688.629 115.309 687.288 115.908C687.038 112.949 688.176 110.428 690.304 108.122C693.627 105.212 698.013 104.703 702.48 104.336C708.288 103.856 713.54 102.498 718.682 100.064C721.186 98.8948 723.691 98.2541 726.446 97.6778C726.895 97.5812 727.344 97.4846 727.812 97.3848C731.709 96.5735 735.605 95.9939 739.587 95.6237C739.874 95.5947 740.157 95.5625 740.448 95.5335C743.594 95.2341 746.739 95.2309 749.895 95.2244Z" fill="#E7E6E6"/>
<path d="M593.857 96.6322C594.435 97.0636 595.013 97.5015 595.584 97.9394C596.026 98.2646 596.472 98.5865 596.917 98.9053C597.352 99.224 597.352 99.224 597.794 99.5492C596.457 101.549 594.45 103.561 591.901 104.379C590.597 104.263 589.54 103.67 588.402 103.133C583.769 101.101 578.189 100.235 573.14 101.642C568.411 103.464 565.741 106.958 562.806 110.496C562.386 110.992 561.97 111.488 561.553 111.984C551.525 123.803 551.525 123.803 547.705 137.824C547.606 138.852 547.4 139.103 546.505 139.811C545.79 140.249 545.065 140.68 544.335 141.102C541.36 142.87 540.071 145.275 538.675 148.073C538.13 149.132 538.13 149.132 537.393 150.098C536.104 149.918 535.5 149.779 534.447 149.132C530.602 144.396 528.778 138.465 529.29 132.712C529.559 131.659 529.861 130.603 530.764 129.814C531.6 129.817 532.436 129.833 533.272 129.856C537.735 129.901 541.768 129.051 545.113 126.327C547.249 124.186 548.147 121.51 549.179 118.867C552.994 109.079 559.635 100.702 570.172 95.6856C577.423 92.7074 587.239 92.0539 593.857 96.6322Z" fill="#FDFDFE"/>
<path d="M754.942 101.077C755.38 101.077 755.818 101.08 756.271 101.08C757.339 101.087 758.407 101.09 759.475 101.096C759.59 101.344 759.59 101.344 759.707 101.599C762.433 107.497 765.836 114.793 772.734 117.839C774.189 118.341 775.647 118.763 777.154 119.126C775.736 121.425 774.281 123.261 771.629 124.6C771.386 124.6 771.143 124.6 770.893 124.6C770.653 124.017 770.653 124.017 770.407 123.425C768.823 119.545 768.823 119.545 766.105 116.229C765.825 115.945 765.825 115.945 765.538 115.659C761.089 111.428 754.614 109.548 748.224 109.042C742.217 108.872 736.144 110.089 730.748 112.365C730.494 112.471 730.24 112.581 729.978 112.69C725.831 114.458 722.262 116.583 718.697 119.146C714.281 122.311 710.849 124.22 704.967 123.956C702.142 123.708 699.369 122.646 697.373 120.843C696.865 120.324 696.865 120.324 695.874 120.334C692.876 121.325 691.244 124.078 689.959 126.509C688.28 130.131 688.029 133.947 687.657 137.8C684.284 133.377 685.252 126.844 685.956 121.863C686.026 121.367 686.026 121.367 686.096 120.862C686.232 119.96 686.386 119.062 686.552 118.161C686.663 117.539 686.663 117.539 686.773 116.905C687.753 115.012 689.889 114.397 691.988 113.637C692.592 113.437 693.196 113.241 693.804 113.051C694.11 112.948 694.415 112.845 694.728 112.739C697.616 111.808 697.616 111.808 699.074 112.365C699.715 112.903 699.715 112.903 700.293 113.573C702.433 115.81 704.522 116.747 707.84 117.124C712.797 117.423 716.97 116.403 720.8 113.589C721.043 113.399 721.29 113.206 721.541 113.009C721.758 112.845 721.979 112.681 722.204 112.513C723.968 111.087 725.275 109.387 726.619 107.658C726.756 107.487 726.888 107.314 727.028 107.136C727.456 106.563 727.456 106.563 727.816 105.897C728.413 104.899 728.87 104.174 730.045 103.656C730.999 103.408 731.934 103.237 732.914 103.089C733.267 103.028 733.621 102.967 733.982 102.903C737.908 102.243 741.874 101.789 745.848 101.418C746.169 101.386 746.489 101.357 746.821 101.325C749.531 101.077 752.22 101.061 754.942 101.077Z" fill="#7591B8"/>
<path d="M573.117 85.3209C574.277 85.7684 575.242 86.3705 576.255 87.037C581.334 90.3629 588.611 94.1524 595.215 93.37C596.732 93.1414 598.176 92.8291 599.635 92.4041C599.819 95.231 599.531 97.8711 597.425 100.131C597.148 99.9188 596.872 99.7031 596.589 99.4842C592.309 96.2323 588.368 94.6547 582.693 94.3359C582.232 94.3037 582.232 94.3037 581.765 94.2715C574.086 93.9785 567.169 97.5813 561.505 101.789C555.446 106.796 551.818 113.631 549.178 120.415C547.601 124.43 545.844 127.366 541.443 129.43C538.803 130.506 536.272 130.77 533.385 130.737C533.134 130.737 532.88 130.734 532.619 130.734C532 130.731 531.381 130.724 530.763 130.718C528.855 133.983 529.197 137.982 530.416 141.404C531.234 143.555 532.357 145.561 533.576 147.557C534.077 148.426 534.077 148.426 534.077 149.07C530.254 147.637 527.871 144.083 525.975 141.021C525.85 140.821 525.724 140.622 525.599 140.416C524.815 139.137 524.089 137.843 523.389 136.53C523.025 135.863 522.627 135.216 522.222 134.566C520.517 131.61 520.517 131.61 521.036 130.081C521.912 128.5 523.194 127.205 524.502 125.889C524.833 125.528 525.164 125.164 525.492 124.8C526.251 123.966 527.024 123.152 527.816 122.347C528.022 122.418 528.229 122.485 528.442 122.559C532.03 123.648 535.934 123.912 539.44 122.469C543.775 120.322 546.603 117.775 548.157 113.589C548.846 111.397 549.181 109.272 549.218 106.996C549.384 101.152 549.384 101.152 551.413 99.3779C552.253 98.7597 553.122 98.1963 554.024 97.6554C554.938 97.0887 555.752 96.4448 556.58 95.7944C561.169 92.211 566.204 89.1619 571.404 86.3029C571.983 85.9809 572.55 85.6525 573.117 85.3209Z" fill="#7491B8"/>
<path d="M745.113 116.936C745.083 117.168 745.057 117.4 745.028 117.641C745.138 118.82 745.621 119.264 746.494 120.156C746.752 120.423 747.006 120.687 747.271 120.961C747.532 121.228 747.79 121.492 748.059 121.766C748.295 122.036 748.53 122.31 748.774 122.59C751.005 124.898 754.375 126.611 757.635 127.561C757.635 127.774 757.635 127.986 757.635 128.205C755.138 128.884 752.7 128.06 750.453 127.059C746.788 125.195 743.636 122.558 741.798 119.19C741.433 119.19 741.069 119.19 740.693 119.19C740.362 121.511 741.835 122.909 743.378 124.651C745.875 127.236 749.68 128.904 753.215 130.137C752.571 130.842 752.571 130.842 751.374 131.425C746.575 131.174 742.895 128.43 739.706 125.539C738.365 124.164 737.662 122.835 737.01 121.122C736.402 121.228 735.795 121.334 735.169 121.444C735.776 123.253 736.424 124.754 737.747 126.273C737.883 126.444 738.023 126.615 738.163 126.792C740.586 129.561 744.402 131.467 748.059 132.713C748.059 132.925 748.059 133.138 748.059 133.356C745.661 133.952 743.916 133.051 741.798 132.069C738.192 130.092 735.887 127.844 733.695 124.663C733.522 124.409 733.345 124.158 733.165 123.897C732.841 123.408 732.528 122.909 732.222 122.41C731.858 122.41 731.493 122.41 731.117 122.41C731.294 125.858 733.854 128.807 736.642 131.103C739.003 132.806 741.559 133.949 744.376 134.966C743.89 135.391 743.404 135.816 742.903 136.254C739.813 135.517 737.54 134.596 735.169 132.713C734.951 132.552 734.734 132.391 734.509 132.223C732.635 130.739 731.375 128.91 730.053 127.046C729.924 126.866 729.795 126.685 729.662 126.495C729.401 126.128 729.143 125.755 728.889 125.381C728.477 124.783 728.477 124.783 727.803 124.019C727.438 124.019 727.073 124.019 726.698 124.019C726.863 125.79 727.416 127.017 728.539 128.466C728.76 128.759 728.76 128.759 728.985 129.055C730.377 130.852 731.942 132.465 733.695 134C733.905 134.187 734.115 134.377 734.333 134.57C736.075 136.003 738.13 136.756 740.325 137.542C739.89 138.035 739.89 138.035 739.22 138.508C735.069 138.556 731.544 136.521 728.657 134.123C726.024 131.763 724.477 129.306 723.015 126.273C722.65 126.273 722.285 126.273 721.91 126.273C722.098 129.657 723.527 132.024 726.197 134.454C726.698 134.966 726.698 134.966 726.698 135.61C726.908 135.694 727.114 135.778 727.331 135.865C728.237 136.286 729.007 136.782 729.828 137.32C731.843 138.576 733.964 139.364 736.273 140.118C735.787 140.543 735.301 140.968 734.8 141.406C727.821 139.294 723.239 136.08 719.7 130.459C719.442 129.928 719.188 129.393 718.963 128.849C718.477 128.849 717.991 128.849 717.49 128.849C717.586 132.552 720.86 135.726 723.751 138.186C726.484 140.369 729.556 141.512 732.959 142.693C732.716 142.906 732.473 143.118 732.222 143.337C726.856 142.958 722.646 140.952 718.963 137.542C717.218 135.649 715.833 133.575 714.544 131.425C713.815 131.582 713.815 131.582 713.071 131.747C713.722 135.527 717.24 138.949 720.437 141.406C723.442 143.315 726.694 144.535 730.381 144.947C730.281 146.406 729.556 147.259 728.462 148.302C726.565 149.767 724.333 149.938 721.88 149.87C716.816 149.435 711.642 147.742 708.143 144.445C706.909 142.822 706.692 141.415 706.717 139.493C706.714 139.271 706.71 139.049 706.71 138.82C706.714 137.416 706.957 136.27 707.546 134.966C707.303 134.86 707.06 134.754 706.81 134.644C714.22 126.743 725.353 122.693 735.949 118.99C736.189 118.907 736.424 118.823 736.671 118.736C743.477 116.366 743.477 116.366 745.113 116.936Z" fill="#FAFBFC"/>
<path d="M351.401 362.274C350.035 363.681 348.65 365.066 347.21 366.421C346.934 366.682 346.934 366.682 346.654 366.946C345.011 368.495 343.361 370.034 341.711 371.573C341.347 371.911 341.347 371.911 340.978 372.255C339.833 373.318 338.676 374.37 337.491 375.401C336.64 376.138 335.829 376.885 335.056 377.69C334.102 378.656 333.108 379.567 332.065 380.465C330.802 381.553 329.627 382.68 328.475 383.859C327.561 384.754 326.585 385.581 325.605 386.422C324.913 387.04 324.261 387.677 323.617 388.334C322.416 389.558 321.12 390.684 319.805 391.814C318.796 392.713 317.86 393.656 316.932 394.622C316.413 395.115 316.413 395.115 315.676 395.437C313.069 388.07 310.649 380.655 308.31 373.221C308.605 373.173 308.899 373.124 309.201 373.073C312.225 372.522 314.814 371.676 317.562 370.465C318.155 370.211 318.155 370.211 318.763 369.95C321.536 368.752 324.283 367.513 326.99 366.205C334.386 362.693 343.14 361.91 351.401 362.274Z" fill="#6D6C79"/>
<path d="M570.539 105.023C570.882 105.381 570.882 105.381 571.231 105.748C572.601 106.939 574.259 107.4 576.063 107.921C576.373 108.018 576.682 108.114 576.999 108.214C580.756 109.228 584.7 108.974 588.586 108.887C588.217 109.853 588.217 109.853 587.58 110.23C583.474 111.72 577.835 111.843 573.625 110.558C572.716 110.214 572.038 109.872 571.268 109.325C570.484 108.765 570.484 108.765 569.066 108.887C569.095 109.66 569.095 109.66 569.434 110.497C574.263 113.578 580.354 113.433 586.008 112.751C585.801 113.655 585.801 113.655 585.271 114.682C583.072 115.8 581.024 115.793 578.527 115.771C578.166 115.774 577.802 115.777 577.43 115.78C573.931 115.767 571.143 115.133 568.241 113.417C567.434 112.989 566.687 112.828 565.751 112.751C565.876 113.652 565.965 114.212 566.672 114.895C571.747 117.915 577.544 117.764 583.429 117.58C582.792 118.836 582.792 118.836 581.905 119.135C575.909 119.963 570.797 119.502 565.53 116.701C564.613 116.276 563.829 116.102 562.805 115.97C562.79 116.733 562.79 116.733 563.173 117.58C564.031 118.108 564.797 118.507 565.729 118.907C565.957 119.016 566.189 119.122 566.429 119.235C570.005 120.842 573.209 121.26 577.213 121.183C577.636 121.177 578.06 121.173 578.494 121.17C579.526 121.157 580.557 121.141 581.588 121.122C581.293 121.901 581.293 121.901 580.851 122.732C576.664 124.238 571.655 123.562 567.593 122.088C566.027 121.45 564.492 120.764 562.963 120.063C561.987 119.638 561.265 119.39 560.227 119.19C560.105 119.615 559.984 120.04 559.858 120.478C566.049 123.994 572.071 125.529 579.378 125.307C579.327 125.906 579.327 125.906 579.01 126.595C575.146 128.34 570.627 128.36 566.532 127.32C564.178 126.608 562.028 125.887 560.157 124.422C559.203 123.62 559.203 123.62 558.061 123.598C557.674 123.646 557.674 123.646 557.28 123.698C557.28 124.123 557.28 124.547 557.28 124.985C560.669 127.912 566.112 129.577 570.819 129.564C571.239 129.561 571.239 129.561 571.666 129.554C571.95 129.554 572.23 129.554 572.52 129.554C574.226 129.541 575.854 129.416 577.537 129.171C577.356 129.808 577.356 129.808 577.168 130.459C572.178 132.107 566.76 131.93 561.818 130.301C560.363 129.721 559.022 129.065 557.704 128.279C556.824 127.838 556.069 127.69 555.07 127.561C554.949 128.092 554.827 128.624 554.702 129.171C554.949 129.251 555.196 129.332 555.45 129.412C556.529 129.808 557.542 130.262 558.577 130.739C564.311 133.356 570.09 134.206 576.432 132.713C576.432 132.925 576.432 133.138 576.432 133.356C575.559 133.675 574.682 133.988 573.81 134.303C573.563 134.393 573.316 134.48 573.066 134.574C568.591 136.164 564.344 135.675 559.858 134.322C558.448 133.801 557.111 133.186 555.767 132.548C554.89 132.152 554.19 131.898 553.229 131.747C553.107 132.172 552.986 132.597 552.861 133.035C558.083 136.032 563.873 137.771 570.171 137.22C571.478 136.937 572.734 136.602 574.008 136.216C574.959 135.932 574.959 135.932 575.695 135.932C576.373 137.114 576.229 138.299 575.839 139.554C574.734 142.069 572.767 143.234 570.057 144.364C569.482 144.564 568.907 144.761 568.329 144.947C568.049 145.044 567.766 145.14 567.478 145.24C565.188 145.913 562.923 146.032 560.525 146.074C560.216 146.084 559.906 146.093 559.586 146.103C556.945 146.106 555.229 145.337 553.317 143.772C551.597 142.22 550.283 140.05 550.283 137.864C550.039 137.864 549.796 137.864 549.546 137.864C549.203 129.139 556.89 120.52 562.529 113.839C563.206 113.034 563.876 112.223 564.547 111.415C565.003 110.867 565.456 110.32 565.913 109.772C566.119 109.518 566.329 109.267 566.547 109.006C567.766 107.548 569.036 106.266 570.539 105.023Z" fill="#FAFBFC"/>
<path d="M590.427 103.736C590.792 104.212 590.792 104.212 591.164 104.702C589.989 104.364 588.818 104.016 587.658 103.642C583.006 102.203 578.612 101.688 573.905 103.391C573.04 103.752 573.04 103.752 572.012 104.38C573.088 104.695 574.159 105.011 575.235 105.326C575.537 105.416 575.842 105.503 576.156 105.597C576.45 105.684 576.745 105.767 577.047 105.857C577.452 105.977 577.452 105.977 577.864 106.099C579.75 106.617 581.415 106.691 583.385 106.695C583.82 106.701 583.82 106.701 584.265 106.704C585.993 106.711 587.319 106.517 588.954 105.989C590.015 106.112 590.015 106.112 590.795 106.311C590.718 107.071 590.718 107.071 590.427 107.921C587.665 109.618 583.717 109.541 580.483 109.209C578.708 108.897 577.032 108.452 575.327 107.921C574.962 107.812 574.601 107.706 574.226 107.593C572.52 107.052 571.559 106.704 570.539 105.346C567.703 107.895 565.383 110.709 563.048 113.607C562.462 114.328 561.869 115.043 561.276 115.758C555.888 122.271 550.43 129.686 549.546 137.864C549.789 137.864 550.032 137.864 550.283 137.864C550.386 138.138 550.489 138.408 550.596 138.688C551.697 141.412 552.827 143.582 555.674 145.166C557.277 145.717 558.654 145.762 560.367 145.752C560.849 145.752 560.849 145.752 561.339 145.752C564.083 145.697 566.44 145.166 568.996 144.332C570.171 143.981 570.171 143.981 571.644 143.981C571.644 144.513 571.644 145.044 571.644 145.591C571.445 145.659 571.25 145.726 571.047 145.794C570.012 146.148 568.988 146.512 567.961 146.879C567.515 147.037 567.07 147.191 566.613 147.352C558.341 150.331 551.391 155.308 544.39 160.08C542.751 158.814 541.93 157.549 541.053 155.814C540.928 155.569 540.799 155.324 540.67 155.073C540.423 154.593 540.176 154.114 539.933 153.634C539.661 153.112 539.37 152.597 539.072 152.085C538.313 150.768 537.882 149.725 538.228 148.218C539.676 144.464 542.751 141.212 546.6 139.152C546.843 139.152 547.086 139.152 547.336 139.152C547.307 138.788 547.277 138.421 547.244 138.044C547.292 129.429 553.549 120.913 559.321 114.341C560.127 113.408 560.901 112.451 561.678 111.498C562.657 110.301 563.648 109.109 564.646 107.921C564.801 107.738 564.956 107.551 565.114 107.361C567.453 104.611 570.432 101.91 574.332 100.967C580.034 100.229 585.503 101.044 590.427 103.736Z" fill="#E9C3AD"/>
<path d="M445.317 237.029C446.161 237.068 446.161 237.068 447.159 237.351C447.811 238.185 447.811 238.185 448.404 239.306C448.514 239.505 448.621 239.708 448.735 239.914C449.089 240.574 449.435 241.237 449.781 241.898C450.031 242.361 450.278 242.822 450.525 243.279C451.022 244.203 451.516 245.127 452.006 246.051C452.882 247.712 453.784 249.364 454.687 251.016C454.845 251.305 455 251.595 455.162 251.895C456.119 253.643 457.099 255.381 458.101 257.11C466.708 272.005 474.755 287.385 479.201 303.676C479.271 303.921 479.341 304.166 479.411 304.417C481.886 313.203 479.757 320.602 474.571 328.178C472.656 330.905 470.498 333.423 468.152 335.873C467.71 336.34 467.71 336.34 467.257 336.816C465.087 339.009 462.675 340.754 460.031 342.48C459.257 342.995 458.495 343.52 457.736 344.048C457.21 344.408 456.687 344.769 456.16 345.129C455.913 345.303 455.666 345.477 455.416 345.654C453.663 346.833 453.663 346.833 452.33 346.765C452.079 346.675 451.832 346.588 451.578 346.498C451.704 345.58 451.777 345.039 452.532 344.366C452.783 344.218 453.033 344.07 453.291 343.916C453.567 343.748 453.843 343.581 454.131 343.407C454.576 343.143 454.576 343.143 455.033 342.876C455.641 342.505 456.248 342.132 456.856 341.758C457.154 341.578 457.449 341.398 457.755 341.211C464.222 337.203 468.852 332.067 472.94 326.214C473.142 325.931 473.142 325.931 473.345 325.638C478.368 318.477 478.663 311.423 476.549 303.354C473.455 292.453 468.723 281.947 463.323 271.776C462.992 271.148 462.657 270.52 462.325 269.889C459.445 264.429 456.444 259.023 453.35 253.649C449.144 246.334 449.144 246.334 447.177 242.686C446.868 242.116 446.555 241.55 446.245 240.98C446.065 240.645 445.884 240.307 445.7 239.963C445.546 239.673 445.391 239.383 445.229 239.087C444.923 238.243 444.967 237.85 445.317 237.029Z" fill="#5A759D"/>
<path d="M759.844 101.097C766.242 101.297 773.575 101.561 778.421 105.692C780.211 107.427 780.27 109.018 780.208 111.278C779.943 113.976 778.867 116.387 777.523 118.805C774.308 119.066 771.943 117.997 769.442 116.268C765.185 112.794 761.498 107.585 759.844 102.707C759.83 102.169 759.826 101.635 759.844 101.097Z" fill="#FEFEFE"/>
<path d="M291 263.109C292.348 263.514 292.904 264.162 293.67 265.185C293.891 265.475 294.112 265.765 294.344 266.068C294.694 266.534 294.694 266.534 295.051 267.011C295.549 267.661 296.046 268.308 296.543 268.956C296.79 269.274 297.033 269.596 297.287 269.925C299.942 273.331 302.863 276.557 305.96 279.664C306.321 280.025 306.675 280.385 307.028 280.749C308.866 282.617 310.829 284.365 312.822 286.11C313.146 286.396 313.47 286.683 313.801 286.976C316.03 288.927 318.357 290.701 320.832 292.408C321.05 292.562 321.267 292.713 321.491 292.874C328.18 297.575 335.627 301.365 342.996 305.177C349.467 308.528 355.902 311.98 361.875 315.992C362.082 316.13 362.292 316.268 362.509 316.41C363.33 316.983 363.868 317.389 364.236 318.261C364.255 318.442 364.273 318.622 364.292 318.809C363.562 319.127 363.562 319.127 362.818 319.453C362.575 319.279 362.332 319.108 362.082 318.931C354.458 313.654 346.035 309.356 337.711 304.996C331.494 301.738 325.27 298.444 319.727 294.339C319.175 293.94 319.175 293.94 318.611 293.531C313.632 289.912 308.833 286.097 304.627 281.783C304.178 281.332 304.178 281.332 303.721 280.872C299.478 276.58 295.733 272.017 292.201 267.265C291.902 266.872 291.597 266.483 291.284 266.1C290.448 265.076 290.263 264.747 290.263 263.431C290.507 263.324 290.75 263.218 291 263.109Z" fill="#5A769D"/>
<path d="M386.021 233.488C386.021 233.758 386.025 234.029 386.025 234.306C386.272 241.006 389.38 246.952 392.459 252.989C392.989 254.036 393.509 255.082 394.021 256.135C395.763 259.702 397.575 263.218 399.648 266.65C399.888 267.046 399.888 267.046 400.127 267.449C402.657 271.631 405.375 275.685 408.27 279.683C408.841 280.476 409.408 281.268 409.972 282.063C415.168 289.352 420.656 296.928 427.639 303.032C427.499 303.876 427.499 303.876 427.271 304.642C425.867 304.584 425.418 304.311 424.383 303.448C423.996 303.058 423.617 302.665 423.241 302.266C423.035 302.05 422.825 301.835 422.612 301.613C415.632 294.275 409.677 286.094 404.068 277.919C403.858 277.616 403.652 277.311 403.434 276.998C401.895 274.745 400.392 272.475 398.912 270.192C398.731 269.912 398.547 269.635 398.363 269.348C395.575 265.018 393.302 260.507 391.063 255.945C390.923 255.662 390.783 255.375 390.636 255.082C383.73 240.999 383.73 240.999 383.789 235.619C383.793 235.22 383.797 234.818 383.797 234.405C383.804 234.103 383.808 233.8 383.811 233.488C384.728 233.085 385.067 233.237 386.021 233.488Z" fill="#5A769D"/>
<path d="M428.376 306.252C428.604 306.857 428.604 306.857 428.744 307.54C427.79 308.374 427.267 308.303 425.937 308.425C417.816 309.465 410.13 313.644 403.582 317.779C402.668 318.348 401.737 318.896 400.797 319.433C400.517 319.594 400.238 319.759 399.95 319.923C396.717 321.462 393.722 321.967 390.087 322.222C387.528 322.46 386.084 323.113 384.18 324.604C383.867 324.823 383.554 325.039 383.233 325.264C382.71 325.631 382.187 326.002 381.668 326.369C380.077 327.338 378.736 327.582 376.814 327.553C376.188 327.547 376.188 327.547 375.547 327.544C375.116 327.537 374.681 327.528 374.236 327.521C373.378 327.512 372.516 327.502 371.658 327.492C371.278 327.486 370.899 327.483 370.508 327.476C369.485 327.502 368.59 327.582 367.606 327.824C367.22 328.419 367.22 328.419 366.87 329.112C364.693 330.776 363.227 330.751 360.447 330.68C358.66 330.657 357.132 330.763 355.452 331.365C354.764 332.038 354.764 332.038 354.37 332.853C354.222 333.117 354.075 333.381 353.924 333.651C353.821 333.854 353.718 334.054 353.611 334.263C353.003 334.157 352.396 334.051 351.769 333.941C351.987 331.939 352.97 330.419 354.716 329.112C357.272 328.275 359.99 328.458 362.664 328.603C364.281 328.429 364.734 327.927 365.765 326.858C367.566 325.509 368.615 325.203 370.973 325.284C371.418 325.293 371.867 325.303 372.332 325.316C373.271 325.338 374.214 325.367 375.153 325.403C377.753 325.448 379.425 325.377 381.395 323.819C381.583 323.651 381.775 323.487 381.97 323.316C382.276 323.104 382.578 322.888 382.891 322.669C383.399 322.309 383.907 321.945 384.412 321.581C386.791 320.167 388.971 319.932 391.774 319.694C396.706 319.182 399.807 317.518 403.777 314.961C410.388 310.773 419.927 305.64 428.376 306.252Z" fill="#5A769D"/>
<path d="M590.427 103.736C590.792 104.212 590.792 104.212 591.164 104.702C589.989 104.364 588.818 104.016 587.658 103.642C583.006 102.203 578.612 101.688 573.905 103.391C573.04 103.752 573.04 103.752 572.012 104.38C573.088 104.695 574.159 105.011 575.235 105.326C575.537 105.416 575.843 105.503 576.156 105.597C576.45 105.684 576.745 105.767 577.047 105.857C577.452 105.977 577.452 105.977 577.864 106.099C579.75 106.617 581.415 106.691 583.385 106.695C583.82 106.701 583.82 106.701 584.266 106.704C585.993 106.711 587.319 106.517 588.954 105.989C590.015 106.112 590.015 106.112 590.795 106.311C590.718 107.071 590.718 107.071 590.427 107.921C587.665 109.618 583.717 109.541 580.483 109.209C578.708 108.897 577.032 108.452 575.327 107.921C574.962 107.812 574.601 107.706 574.226 107.593C572.52 107.052 571.559 106.704 570.539 105.346C567.703 107.895 565.383 110.709 563.048 113.607C562.462 114.328 561.869 115.043 561.276 115.758C555.888 122.271 550.43 129.686 549.546 137.864C549.789 137.97 550.032 138.077 550.283 138.186C548.824 138.505 548.824 138.505 547.336 138.83C547.049 129.873 553.314 121.183 559.321 114.341C560.127 113.408 560.901 112.451 561.678 111.498C562.657 110.301 563.648 109.109 564.646 107.921C564.801 107.738 564.956 107.551 565.114 107.361C567.453 104.611 570.432 101.91 574.332 100.967C580.034 100.229 585.503 101.044 590.427 103.736Z" fill="#7894BA"/>
<path d="M753.92 116.253C757.382 118.333 760.892 121.15 762.424 124.663C762.303 124.982 762.181 125.301 762.056 125.629C761.912 125.407 761.769 125.185 761.621 124.956C759.102 121.26 755.559 118.243 750.731 116.997C749.206 116.711 747.781 116.591 746.219 116.614C751.055 121.936 751.055 121.936 757.636 125.307C757.946 125.404 758.259 125.497 758.579 125.597C759.367 125.832 760.155 126.057 760.951 126.273C760.829 126.804 760.708 127.335 760.583 127.883C756.148 128.166 752.646 125.938 749.368 123.517C748.348 122.689 747.493 121.756 746.632 120.799C746.447 120.606 746.267 120.41 746.075 120.21C745.902 120.02 745.729 119.83 745.552 119.634C745.398 119.463 745.243 119.293 745.081 119.116C744.639 118.365 744.687 117.77 744.746 116.936C741.497 117.335 738.569 118.362 735.56 119.45C735.303 119.544 735.049 119.634 734.783 119.731C719.716 124.831 719.716 124.831 707.89 134.061C707.176 134.873 706.892 134.956 705.699 135.101C704.583 135.108 703.5 135.066 702.391 134.966C702.391 134.86 702.391 134.753 702.391 134.644C702.926 134.596 702.926 134.596 703.471 134.544C705.375 134.077 706.251 132.715 707.411 131.405C715.028 123.131 728.629 119.315 739.59 115.648C739.925 115.535 740.264 115.419 740.61 115.304C745.07 113.884 749.832 114.183 753.92 116.253Z" fill="#7893BA"/>
<path d="M549.178 101.741C549.299 101.741 549.421 101.741 549.546 101.741C549.737 108.016 549.741 114.307 544.857 119.346C541.878 122.015 538.339 123.68 534.055 123.776C531.89 123.725 530.181 123.39 528.185 122.669C529.474 120.084 532.449 118.651 535.112 117.257C539.657 114.855 543.487 112.118 545.082 107.556C545.778 105.579 546.913 104.256 548.441 102.707C548.684 102.388 548.927 102.07 549.178 101.741Z" fill="#FDFDFE"/>
<path d="M338.142 161.046C338.872 161.364 338.872 161.364 339.616 161.689C339.49 163.46 338.249 164.584 337.037 165.914C336.71 166.281 336.71 166.281 336.375 166.654C335.741 167.363 335.1 168.068 334.459 168.773C334.172 169.095 333.885 169.417 333.586 169.748C330.01 173.673 325.97 177.662 321.477 180.808C320.442 181.532 319.407 182.26 318.394 183.01C308.896 190.016 296.351 195.715 284.002 197.428C282.735 197.296 282.735 197.296 281.793 197.106C281.885 196.494 281.885 196.494 282.161 195.818C282.798 195.512 282.798 195.512 283.619 195.306C283.918 195.229 284.22 195.155 284.529 195.074C284.842 195 285.155 194.926 285.476 194.852C285.903 194.749 285.903 194.749 286.341 194.643C286.93 194.504 287.516 194.366 288.105 194.227C299.666 191.504 309.942 186.545 318.991 179.72C319.267 179.517 319.54 179.311 319.823 179.101C324.571 175.47 329.112 171.558 332.857 167.111C333.421 166.438 333.995 165.772 334.57 165.106C335.354 164.194 336.135 163.283 336.912 162.369C337.774 161.368 337.774 161.368 338.142 161.046Z" fill="#D0B4A3"/>
<path d="M229.701 114.197C229.97 114.191 230.239 114.188 230.515 114.181C232.29 114.181 233.462 114.448 235.02 115.263C235.02 115.9 235.02 116.538 235.02 117.195C233.421 117.938 231.823 118.579 230.132 119.149C223.775 121.297 218.531 124.313 213.857 128.67C213.29 129.107 213.29 129.107 212.251 129.291C211.448 129.107 211.448 129.107 210.712 128.463C210.388 125.672 212.48 123.421 214.347 121.3C216.435 119.126 218.604 117.558 221.415 116.129C221.628 116.019 221.842 115.91 222.059 115.801C224.575 114.567 226.873 114.188 229.701 114.197Z" fill="#7F5047"/>
<path d="M302.671 100.755C303.153 101.418 303.153 101.418 303.083 102.284C302.785 103.028 302.785 103.028 302.416 103.35C301.566 103.363 300.715 103.353 299.864 103.337C299.326 103.328 298.789 103.321 298.251 103.315C297.967 103.308 297.688 103.305 297.397 103.302C292.605 103.244 288.219 103.263 283.633 104.638C282.878 104.86 282.127 105.082 281.372 105.304C280.694 105.507 280.02 105.723 279.35 105.942C278.017 106.274 276.912 106.328 275.531 106.248C275.162 105.926 275.162 105.926 275.056 105.04C275.254 103.102 276.849 101.991 278.477 100.774C285.438 96.9237 295.743 96.3893 302.671 100.755Z" fill="#7F5047"/>
<path d="M237.597 132.006C237.777 132.325 237.777 132.325 237.965 132.65C236.628 132.437 235.291 132.225 233.914 132.006C234.334 132.263 234.334 132.263 234.765 132.528C236.3 133.716 236.915 134.862 237.044 136.636C236.971 138.3 236.278 139.463 235.019 140.699C233.516 141.855 231.947 142.222 229.962 142.129C228.157 141.823 226.78 141.069 225.668 139.788C224.673 138.239 224.566 136.977 224.706 135.226C224.706 135.119 224.706 135.013 224.706 134.904C224.099 135.541 223.491 136.179 222.865 136.835C222.519 136.027 222.441 135.667 222.813 134.855C224.39 132.743 226.334 131.291 229.119 130.515C232.315 130.007 234.894 130.403 237.597 132.006Z" fill="#43261F"/>
<path d="M560.963 225.439C562.341 225.661 563.401 226.202 564.624 226.788C573.787 230.896 585.72 231.875 595.882 231.959C596.799 231.968 597.712 231.978 598.625 231.991C600.047 232.004 601.469 232.02 602.89 232.033C612.083 232.116 612.083 232.116 616.024 232.474C616.285 232.496 616.543 232.516 616.812 232.538C618.322 232.699 619.383 233.044 620.628 233.81C620.385 234.235 620.141 234.66 619.891 235.098C619.537 235.053 619.18 235.008 618.816 234.959C615.287 234.544 611.803 234.399 608.245 234.389C607.792 234.386 607.343 234.386 606.875 234.383C605.932 234.383 604.986 234.38 604.043 234.38C596.688 234.354 589.403 234.209 582.118 233.246C581.816 233.208 581.518 233.169 581.209 233.127C575.618 232.384 569.53 231.562 564.462 229.283C564.208 229.177 563.957 229.074 563.696 228.964C562.307 228.372 561.243 227.744 560.227 226.727C560.47 226.302 560.713 225.877 560.963 225.439Z" fill="#2F437B"/>
<path d="M301.681 112.688C301.924 113.007 302.167 113.325 302.417 113.654C300.594 113.335 300.594 113.335 298.734 113.01C299.022 113.303 299.313 113.596 299.611 113.895C301.069 115.447 301.515 116.413 301.312 118.483C300.532 120.686 299.368 121.635 297.147 122.791C295.626 123.1 294.337 123.078 292.842 122.669C291.383 121.858 290.249 120.917 289.343 119.63C289.085 118.474 289.114 117.408 289.159 116.23C289.159 116.017 289.159 115.805 289.159 115.586C288.429 116.436 287.7 117.286 286.949 118.161C286.58 117.517 286.58 117.517 286.842 116.819C288.253 114.224 289.917 112.785 293.004 111.761C296.123 110.982 298.837 111.281 301.681 112.688Z" fill="#43261F"/>
<path d="M353.286 92.7486C356.066 94.1427 357.385 96.0326 358.217 98.6985C358.508 100.06 358.49 101.39 358.398 102.768C357.554 101.387 356.954 99.9155 356.332 98.4474C355.643 96.8955 354.847 95.6173 353.312 94.5999C352.074 94.2908 351.172 94.455 349.927 94.719C348.299 95.6527 347.588 96.6411 346.752 98.1608C346.642 98.3604 346.531 98.56 346.417 98.7661C344.749 101.854 343.968 104.632 344.012 108.042C344.012 108.28 344.016 108.515 344.016 108.76C344.023 109.339 344.027 109.919 344.034 110.495C344.24 110.495 344.447 110.492 344.657 110.489C346.833 110.563 348.074 111.046 349.636 112.379C351.378 114.204 352.431 116.123 352.277 118.528C352.074 119.504 351.621 120.286 351.032 121.12C350.678 120.19 350.664 119.758 350.734 118.808C350.748 116.88 350.052 115.521 348.583 114.092C347.301 113.02 347.301 113.02 345.61 112.701C345.334 112.717 345.058 112.733 344.771 112.749C344.48 113.354 344.189 113.956 343.898 114.562C343.655 115.067 343.655 115.067 343.404 115.579C342.955 116.558 342.561 117.543 342.193 118.544C342.071 118.544 341.95 118.544 341.824 118.544C340.513 110.489 339.232 102.105 345.106 95.1762C347.22 93.048 350.06 91.5831 353.286 92.7486Z" fill="#8E584B"/>
<path d="M512.348 306.252C512.955 306.252 513.563 306.252 514.189 306.252C514.429 306.754 514.668 307.257 514.904 307.762C515.103 308.181 515.103 308.181 515.305 308.609C517.298 313.403 516.281 319.607 513.965 324.163C511.151 328.957 507.626 331.221 501.8 332.991C498.791 333.732 495.767 333.69 492.666 333.7C492.194 333.706 491.719 333.713 491.233 333.719C488.674 333.729 486.677 333.629 484.357 332.653C484.479 332.228 484.6 331.803 484.725 331.365C485.514 331.143 486.036 331.008 486.85 331.192C491.918 332.267 498.684 331.752 503.509 330.078C503.851 329.965 504.197 329.852 504.551 329.736C508.201 328.358 510.138 325.824 511.862 322.795C513.114 319.994 513.633 317.428 513.593 314.424C513.596 314.108 513.6 313.796 513.604 313.474C513.596 311.658 513.35 310.158 512.591 308.464C512.285 307.711 512.259 307.044 512.348 306.252Z" fill="#5A769D"/>
<path d="M266.324 220.931C267.105 221.054 267.105 221.054 267.797 221.253C267.904 223.22 267.488 224.956 266.991 226.868C265.389 233.33 263.864 240.037 263.757 246.663C263.746 247.39 263.717 248.118 263.691 248.846C263.558 253.479 263.621 259.557 267.337 263.208C268.166 264.075 268.166 264.075 268.28 265.002C268.243 265.227 268.206 265.453 268.166 265.684C266.505 265.81 266.505 265.81 265.727 265.269C259.058 257.236 260.671 245.922 262.273 236.708C262.928 233.153 263.683 229.615 264.483 226.083C264.531 225.87 264.578 225.654 264.626 225.435C264.766 224.808 264.914 224.18 265.057 223.552C265.142 223.188 265.227 222.824 265.311 222.448C265.588 221.575 265.588 221.575 266.324 220.931Z" fill="#5A769D"/>
<path d="M256.748 128.849C257.378 129.818 257.599 130.584 257.687 131.692C257.713 132.001 257.739 132.31 257.765 132.629C257.791 132.964 257.816 133.295 257.838 133.64C257.868 133.988 257.897 134.335 257.927 134.696C258.023 135.81 258.111 136.927 258.199 138.044C258.656 144.052 258.656 144.052 259.488 150.028C259.529 150.269 259.569 150.514 259.61 150.762C259.941 152.52 260.498 153.962 261.882 155.289C264.431 156.654 267.48 157.243 270.375 157.826C268.939 158.663 267.713 158.576 266.048 158.57C265.757 158.576 265.47 158.579 265.171 158.586C262.729 158.589 261.006 158.174 259.072 156.799C255.938 153.466 255.242 148.878 255.187 144.683C255.183 144.448 255.179 144.21 255.176 143.969C255.168 143.209 255.165 142.449 255.161 141.689C255.157 141.428 255.157 141.171 255.157 140.907C255.146 136.763 255.54 132.87 256.748 128.849Z" fill="#8E584B"/>
<path d="M363.187 277.597C363.916 277.597 363.916 277.597 364.66 277.919C365.117 278.753 365.117 278.753 365.511 279.832C367.96 285.791 373.639 289.59 379.23 293.283C388.26 299.265 388.26 299.265 391.708 302.691C391.885 302.862 392.061 303.032 392.242 303.21C393.048 304.047 393.402 304.456 393.31 305.57C393.214 305.795 393.118 306.02 393.019 306.252C391.833 306.152 391.303 306.043 390.456 305.286C390.231 305.013 390.006 304.742 389.774 304.462C386.706 300.946 382.891 298.432 378.898 295.775C364.66 286.293 364.66 286.293 362.472 279.027C362.465 278.766 362.457 278.508 362.45 278.241C362.693 278.029 362.936 277.816 363.187 277.597Z" fill="#5A769D"/>
<path d="M581.588 151.324C581.816 151.929 581.816 151.929 581.956 152.612C580.862 153.568 579.485 153.674 578.019 153.98C567.453 156.318 558.26 161.459 550.15 167.728C549.852 167.953 549.852 167.953 549.546 168.185C549.005 168.604 548.47 169.026 547.933 169.451C546.968 169.998 546.968 169.998 545.922 169.924C545.528 169.802 545.528 169.802 545.126 169.676C545.241 168.668 545.377 168.176 546.183 167.435C546.651 167.12 546.651 167.12 547.13 166.798C547.682 166.424 547.682 166.424 548.242 166.041C548.452 165.903 548.658 165.764 548.872 165.622C549.605 165.13 550.323 164.624 551.045 164.116C558.352 158.99 566.097 154.965 574.959 152.29C575.316 152.18 575.673 152.071 576.045 151.955C577.964 151.404 579.57 151.227 581.588 151.324Z" fill="#2F437B"/>
<path d="M710.493 135.932C711.557 136.834 712.526 137.745 713.461 138.749C717.118 142.397 722.127 144.683 727.434 145.913C727.191 146.551 726.948 147.188 726.698 147.845C721.866 148.202 716.96 146.911 713.196 144.258C709.517 141.467 709.517 141.467 709.248 139.352C709.41 138.009 709.815 137.14 710.493 135.932Z" fill="#7793BA"/>
<path d="M553.229 137.22C553.432 137.278 553.634 137.336 553.84 137.397C559.663 139.013 565.508 139.986 571.463 138.366C572.425 138.176 572.937 138.225 573.854 138.508C573.854 139.039 573.854 139.57 573.854 140.118C573.058 140.485 572.259 140.845 571.46 141.206C571.239 141.306 571.018 141.409 570.789 141.515C567.99 142.764 565.401 143.128 562.274 143.115C561.983 143.122 561.689 143.125 561.387 143.131C558.897 143.135 556.404 142.848 554.54 141.306C553.616 139.912 553.229 138.833 553.229 137.22Z" fill="#7591B9"/>
<path d="M684.522 151.584C693.862 151.594 706.487 153.426 713.805 159.051C714.118 159.743 714.118 159.743 714.174 160.339C713.805 160.66 713.805 160.66 713.003 160.754C711.636 160.631 710.87 160.158 709.71 159.514C702.672 155.818 694.006 154.012 685.863 153.719C685.505 153.706 685.144 153.69 684.776 153.677C683.896 153.642 683.016 153.609 682.132 153.577C681.992 153.046 681.87 152.508 681.763 151.967C682.485 151.34 683.564 151.591 684.522 151.584Z" fill="#30437B"/>
<path d="M286.212 164.525C286.698 164.631 287.184 164.737 287.685 164.846C287.435 167.747 284.547 169.676 282.157 171.479C277.929 174.367 273.248 176.263 267.797 175.793C265.436 175.394 262.965 174.666 261.168 173.218C260.906 172.522 260.906 172.522 260.8 171.93C261.875 171.656 262.442 171.537 263.496 171.917C263.904 172.142 263.904 172.142 264.32 172.374C266.961 173.804 269.639 173.865 272.666 173.33C275.554 172.625 277.907 171.543 280.319 169.998C280.669 169.776 280.669 169.776 281.027 169.547C283.067 168.134 284.614 166.305 286.212 164.525Z" fill="#8E584B"/>
<path d="M543.653 285.324C544.139 285.431 544.625 285.537 545.126 285.646C545.646 286.863 545.325 287.62 544.85 288.824C543.874 291.442 543.281 294.095 542.688 296.796C541.642 301.303 539.764 305.383 535.849 308.586C534.814 309.15 534.814 309.15 533.753 309.089C533.495 309.002 533.238 308.918 532.972 308.828C533.179 307.637 533.687 307.163 534.7 306.374C539.454 302.311 540.375 296.561 541.491 291.062C541.926 288.995 542.559 287.198 543.653 285.324Z" fill="#2F437B"/>
<path d="M713.439 131.684C714.124 131.716 714.124 131.716 714.912 132.006C715.516 132.769 715.516 132.769 716.109 133.757C718.533 137.55 721.825 141.172 726.698 142.631C728.528 143.011 730.366 143.317 732.222 143.597C732.362 144.131 732.484 144.666 732.591 145.207C731.983 145.738 731.309 145.622 730.473 145.651C725.781 145.603 721.744 143.371 718.389 140.66C716.094 138.558 714.047 135.94 712.702 133.294C712.791 132.569 712.85 132.199 713.439 131.684Z" fill="#7893BA"/>
<path d="M553.229 132.006C554.636 132.177 555.77 132.808 557.004 133.394C562.256 135.783 567.416 136.468 573.117 134.904C573.544 134.717 573.968 134.533 574.406 134.34C575.327 133.938 575.327 133.938 576.203 134.038C576.399 134.112 576.597 134.186 576.8 134.26C576.8 134.791 576.8 135.322 576.8 135.87C571.699 138.265 567.309 138.693 561.589 137.518C558.363 136.665 555.052 135.57 552.492 133.616C552.816 132.367 552.816 132.367 553.229 132.006Z" fill="#7793BA"/>
<path d="M555.07 127.82C556.621 127.962 557.637 128.48 558.938 129.208C564.359 132.006 570.377 132.46 576.458 131.117C576.69 131.092 576.925 131.066 577.168 131.04C577.411 131.253 577.655 131.465 577.905 131.684C577.853 132.334 577.853 132.334 577.537 132.972C576.922 133.297 576.922 133.297 576.156 133.516C575.905 133.59 575.658 133.664 575.401 133.741C568.524 135.412 562.547 133.587 556.544 130.718C556.186 130.551 555.825 130.38 555.457 130.206C555.207 130.058 554.96 129.907 554.702 129.752C554.562 128.909 554.562 128.909 554.702 128.142C554.824 128.036 554.945 127.93 555.07 127.82Z" fill="#7A95BB"/>
<path d="M721.91 126.532C722.628 126.607 722.628 126.607 723.383 126.854C723.895 127.653 724.322 128.416 724.742 129.25C726.801 133.072 729.92 136.404 734.598 137.882C735.437 138.101 736.277 138.31 737.124 138.503C738.115 138.767 738.115 138.767 738.851 139.411C738.712 140.255 738.712 140.255 738.483 141.021C734.163 140.957 729.736 138.828 726.698 136.191C724.002 133.423 721.494 130.631 721.541 126.854C721.663 126.748 721.785 126.642 721.91 126.532Z" fill="#7994BA"/>
<path d="M717.49 129.108C718.367 129.137 718.367 129.137 719.332 129.43C719.902 130.206 719.902 130.206 720.392 131.201C722.827 135.773 726.576 138.716 731.854 140.699C732.428 140.879 733.003 141.053 733.581 141.221C733.983 141.369 734.384 141.514 734.8 141.665C735.062 142.338 735.062 142.338 735.168 142.953C734.251 143.481 733.839 143.619 732.741 143.458C725.438 141.253 721.041 137.441 717.416 131.616C717.03 130.856 717.044 130.251 717.122 129.43C717.243 129.324 717.365 129.218 717.49 129.108Z" fill="#7792B9"/>
<path d="M557.28 123.957C558.363 123.873 558.941 123.851 559.858 124.395C560.101 124.588 560.344 124.781 560.595 124.984C564.539 127.836 569.279 128.358 574.222 128.142C575.117 127.985 575.927 127.746 576.8 127.498C577.658 127.476 578.52 127.466 579.378 127.498C579.378 128.03 579.378 128.561 579.378 129.108C574.631 130.979 569.279 130.931 564.348 129.517C561.567 128.551 559.118 127.337 556.912 125.567C557.033 125.035 557.155 124.504 557.28 123.957Z" fill="#7793B9"/>
<path d="M560.227 119.449C561.501 119.649 562.54 120.125 563.681 120.65C569.364 123.261 574.425 124.23 580.851 123.313C581.032 124.108 581.032 124.108 581.22 124.923C577.238 126.784 573.426 126.407 569.184 125.377C565.758 124.459 562.208 123.126 559.49 121.059C559.814 119.81 559.814 119.81 560.227 119.449Z" fill="#7893BA"/>
<path d="M726.698 124.279C727.409 124.353 727.409 124.353 728.171 124.601C728.613 125.174 729.048 125.75 729.445 126.346C732.952 131.481 736.598 134.501 742.903 136.835C742.781 137.26 742.66 137.685 742.535 138.123C740.155 138.722 738.362 137.833 736.274 136.835C734.929 135.96 733.758 134.987 732.591 133.938C732.336 133.719 732.086 133.5 731.825 133.278C730.241 131.829 729 130.245 727.803 128.545C727.582 128.236 727.582 128.236 727.357 127.923C726.584 126.78 726.105 125.937 726.33 124.601C726.451 124.494 726.573 124.388 726.698 124.279Z" fill="#7793B9"/>
<path d="M731.118 122.669C731.828 122.746 731.828 122.746 732.591 122.991C733.195 123.757 733.714 124.494 734.226 125.306C737.172 129.913 741.301 132.489 746.954 134.26C746.833 134.791 746.711 135.322 746.586 135.869C744.634 136.439 742.84 135.335 741.062 134.582C736.502 132.315 732.594 128.976 730.749 124.601C730.635 123.654 730.635 123.654 730.749 122.991C730.871 122.885 730.992 122.778 731.118 122.669Z" fill="#7893BA"/>
<path d="M562.805 116.23C564.429 116.426 565.648 116.964 567.084 117.64C572.406 120.029 577.19 119.968 583.061 119.449C583.242 120.245 583.242 120.245 583.429 121.059C580.406 122.82 574.572 122.379 571.084 121.816C568.215 121.03 564.587 119.72 562.436 117.839C562.576 116.996 562.576 116.996 562.805 116.23Z" fill="#7793B9"/>
<path d="M565.751 113.01C567.055 113.116 567.887 113.47 568.952 114.098C571.961 115.801 575.032 116.053 578.549 115.988C578.918 115.985 579.286 115.985 579.669 115.982C581.153 115.969 582.546 115.93 584.011 115.702C584.306 115.663 584.601 115.624 584.903 115.586C585.146 115.798 585.389 116.011 585.639 116.23C585.595 116.88 585.595 116.88 585.271 117.518C581.96 119.314 576.616 118.789 572.955 118.12C569.987 117.498 567.556 116.519 565.383 114.62C565.523 113.776 565.523 113.776 565.751 113.01Z" fill="#7995BA"/>
<path d="M356.189 337.742C356.926 337.79 356.926 337.79 357.662 338.064C360.52 341.38 360.34 346.516 360.354 350.44C360.358 350.83 360.358 351.22 360.362 351.619C360.343 353.65 360.196 355.441 359.504 357.382C358.896 357.382 358.288 357.382 357.662 357.382C357.32 356.413 357.279 356.136 357.662 355.128C357.986 350.598 357.983 345.991 356.557 341.606C356.399 341.11 356.399 341.11 356.237 340.601C355.99 339.857 355.732 339.12 355.452 338.386C355.695 338.174 355.939 337.961 356.189 337.742Z" fill="#5A769D"/>
<path d="M735.537 121.381C736.366 121.362 736.366 121.362 737.378 121.703C737.739 122.279 737.739 122.279 738.071 123.01C738.844 124.723 739.949 125.882 741.43 127.176C741.658 127.376 741.886 127.576 742.122 127.782C744.693 129.884 747.724 130.995 751.005 132.006C750.884 132.537 750.762 133.068 750.637 133.616C746.461 133.835 742.785 131.523 739.739 129.211C737.651 127.453 735.419 125.222 734.8 122.669C735.135 121.941 735.135 121.941 735.537 121.381Z" fill="#7894BA"/>
<path d="M740.693 119.449C741.389 119.498 741.389 119.498 742.166 119.771C742.689 120.415 742.689 120.415 743.179 121.239C745.477 124.736 749.19 127.273 753.628 128.448C754.475 128.596 755.304 128.719 756.162 128.786C756.302 129.321 756.423 129.855 756.53 130.396C756.162 130.718 756.162 130.718 754.758 130.84C750.383 130.766 746.766 128.345 743.64 125.889C742.06 124.385 740.399 122.782 740.255 120.676C740.325 119.771 740.325 119.771 740.693 119.449Z" fill="#7793BA"/>
<path d="M372.762 332.269C373.249 332.269 373.735 332.269 374.236 332.269C375.492 334.143 376.313 336.007 376.906 338.103C376.965 338.315 377.027 338.528 377.086 338.743C378.195 342.861 378.784 347.636 376.814 351.587C376.328 351.48 375.841 351.374 375.341 351.265C374.969 350.254 375.042 349.7 375.341 348.689C375.643 343.785 375.237 339.165 372.722 334.7C372.343 333.746 372.438 333.225 372.762 332.269Z" fill="#5A759D"/>
<path d="M569.066 109.146C570.458 109.34 571.53 109.697 572.771 110.273C575.257 111.426 577.29 111.458 580.071 111.461C580.432 111.465 580.792 111.468 581.164 111.471C583.065 111.477 584.586 111.384 586.376 110.756C587.437 110.718 587.437 110.718 588.217 110.756C588.398 111.394 588.398 111.394 588.586 112.044C585.404 114.24 581.448 114.214 577.537 113.976C574.303 113.57 571.069 112.83 568.698 110.756C568.837 109.913 568.837 109.913 569.066 109.146Z" fill="#7793B9"/>
<path d="M362.818 334.522C363.739 334.799 364.192 335.034 364.734 335.749C364.844 335.981 364.958 336.216 365.072 336.454C365.19 336.68 365.304 336.905 365.422 337.137C366.686 340.553 366.59 343.892 366.546 347.44C366.542 348 366.542 348.56 366.538 349.12C366.531 350.479 366.516 351.838 366.501 353.196C365.89 353.319 365.279 353.425 364.66 353.518C363.916 352.868 364.233 351.529 364.225 350.637C364.218 350.099 364.211 349.561 364.2 349.024C364.188 348.177 364.177 347.333 364.17 346.487C364.148 343.373 364.045 340.608 362.8 337.658C362.428 336.721 362.24 335.823 362.082 334.844C362.325 334.738 362.568 334.632 362.818 334.522Z" fill="#5A769D"/>
<path d="M632.781 234.27C637.978 234.351 642.144 237.084 646.04 239.866C645.926 240.487 645.926 240.487 645.672 241.154C644.567 241.476 644.567 241.476 643.952 241.205C643.735 241.064 643.514 240.922 643.285 240.777C643.042 240.623 642.796 240.468 642.545 240.307C642.284 240.143 642.026 239.975 641.761 239.805C637.805 237.364 635.139 236.447 630.203 236.324C629.975 235.719 629.975 235.719 629.835 235.037C630.829 234.164 631.389 234.283 632.781 234.27Z" fill="#30437B"/>
<path d="M447.527 298.14C447.77 298.565 448.013 298.99 448.264 299.428C447.395 300.188 447.148 300.169 445.962 300.243C445.487 300.275 445.487 300.275 445.004 300.31C444.349 300.352 443.693 300.394 443.034 300.433C440.338 300.629 437.697 300.938 435.627 302.567C434.637 303.292 434.637 303.292 433.76 303.231C433.565 303.144 433.366 303.06 433.163 302.97C433.163 301.682 433.163 301.682 433.639 301.167C437.749 298.205 442.345 298.008 447.527 298.14Z" fill="#5A769D"/>
<path d="M228.021 163.237C228.386 163.343 228.75 163.449 229.126 163.559C229.004 164.09 228.883 164.621 228.758 165.168C228.271 164.956 227.785 164.743 227.284 164.524C227.528 164.1 227.771 163.675 228.021 163.237Z" fill="#90594C"/>
<path d="M236.124 163.559C236.853 163.716 236.853 163.716 237.597 163.881C237.475 164.306 237.354 164.731 237.228 165.168C236.742 165.062 236.256 164.956 235.755 164.846C235.877 164.421 235.998 163.996 236.124 163.559Z" fill="#8E594A"/>
<path d="M246.436 158.729C247.165 158.887 247.165 158.887 247.909 159.051C247.788 159.476 247.666 159.901 247.541 160.339C247.055 160.233 246.569 160.126 246.068 160.017C246.189 159.592 246.311 159.167 246.436 158.729Z" fill="#8F584B"/>
<path d="M250.855 151.968C251.342 151.968 251.828 151.968 252.329 151.968C252.207 152.499 252.086 153.03 251.96 153.578C251.474 153.471 250.988 153.365 250.487 153.256C250.609 152.831 250.73 152.406 250.855 151.968Z" fill="#8F594B"/>
<path d="M288.054 147.782C288.963 147.94 288.963 147.94 289.895 148.104C289.895 148.423 289.895 148.742 289.895 149.07C289.409 149.176 288.923 149.283 288.422 149.392C288.3 148.861 288.179 148.33 288.054 147.782Z" fill="#90594B"/>
<path d="M279.215 144.563C280.124 144.72 280.124 144.72 281.056 144.885C280.935 145.31 280.813 145.735 280.688 146.172C280.202 146.066 279.715 145.96 279.215 145.85C279.215 145.425 279.215 145 279.215 144.563Z" fill="#90594B"/>
<path d="M300.208 141.343C300.694 141.343 301.18 141.343 301.681 141.343C301.559 141.874 301.438 142.405 301.312 142.953C300.948 142.953 300.583 142.953 300.208 142.953C300.001 142.328 300.001 142.328 299.839 141.665C299.961 141.559 300.082 141.452 300.208 141.343Z" fill="#8F584B"/>
<path d="M288.054 139.733C288.783 139.891 288.783 139.891 289.527 140.055C289.405 140.48 289.284 140.905 289.159 141.343C288.672 141.237 288.186 141.13 287.685 141.021C287.807 140.596 287.929 140.171 288.054 139.733Z" fill="#8F594B"/>
<path d="M314.571 138.445C315.057 138.445 315.543 138.445 316.044 138.445C315.923 138.976 315.801 139.508 315.676 140.055C315.311 140.055 314.947 140.055 314.571 140.055C314.365 139.43 314.365 139.43 314.203 138.767C314.324 138.661 314.446 138.555 314.571 138.445Z" fill="#8F584B"/>
<path d="M304.995 134.904C305.725 135.061 305.725 135.061 306.469 135.226C306.347 135.651 306.226 136.076 306.1 136.513C305.614 136.407 305.128 136.301 304.627 136.191C304.749 135.766 304.87 135.341 304.995 134.904Z" fill="#8F584B"/>
<path d="M237.965 156.475C238.451 156.475 238.937 156.475 239.438 156.475C239.317 157.007 239.195 157.538 239.07 158.085C238.705 157.979 238.341 157.873 237.965 157.763C237.965 157.338 237.965 156.913 237.965 156.475Z" fill="#8E584B"/>
</svg>
